<?xml version="1.0" encoding="UTF-8"?>
<svg width="1636px" height="1197px" viewBox="0 0 1636 1197" version="1.1" xmlns="http://www.w3.org/2000/svg" xmlns:xlink="http://www.w3.org/1999/xlink">
    <title>4-responsibility</title>
    <defs>
        <path d="M1276.17358,708.193873 C1246.95999,757.903149 1203.67488,799.693551 1150.67884,824.072234 C1120.56558,837.899864 1087.22761,847.136053 1052.36365,851.281301 C1015.51787,855.639307 978.096547,854.423089 941.721244,850.507248 C833.042073,838.806623 728.612775,796.326186 618.7022,802.906285 C506.631469,809.616184 387.727867,847.082401 276.992965,816.222745 C191.832636,792.488711 118.244697,740.086755 74.7955697,663.686169 C16.5575973,561.284318 9.51209029,430.810448 62.8466971,325.067381 C85.0136863,281.119727 129.387299,247.435489 168.883654,219.314546 C191.911552,202.918777 215.950601,187.247983 242.852215,178.155936 C324.251979,150.645368 418.415353,187.068085 498.215601,155.368261 C565.207585,128.75368 614.732076,73.4363331 685.610648,54.269743 C765.416603,32.6886205 858.827599,44.8632262 925.622478,94.5527801 C990.566028,142.864523 1030.48345,215.160571 1089.08453,269.767747 C1140.45124,317.631984 1207.68881,347.558428 1255.53867,398.807518 C1336.55636,485.578224 1332.82857,611.783305 1276.17358,708.193873" id="path-1"></path>
        <path d="M201.933326,15.5427632 C201.933326,6.9587321 194.9681,0 186.376059,0 L15.557267,0 C6.96522569,0 0,6.9587321 0,15.5427632 L0,173.457237 C0,182.041268 6.96522569,189 15.557267,189 L142.23787,189 C149.242521,188.994534 155.936846,186.112155 160.751018,181.028783 L195.043679,144.769737 C199.511415,140.055354 202,133.80965 202,127.317434 L201.933326,15.5427632 Z" id="path-3"></path>
        <filter x="-51.7%" y="-46.3%" width="203.5%" height="210.6%" filterUnits="objectBoundingBox" id="filter-4">
            <feMorphology radius="7" operator="dilate" in="SourceAlpha" result="shadowSpreadOuter1"></feMorphology>
            <feOffset dx="0" dy="17" in="shadowSpreadOuter1" result="shadowOffsetOuter1"></feOffset>
            <feGaussianBlur stdDeviation="25" in="shadowOffsetOuter1" result="shadowBlurOuter1"></feGaussianBlur>
            <feColorMatrix values="0 0 0 0 0   0 0 0 0 0   0 0 0 0 0  0 0 0 0.05 0" type="matrix" in="shadowBlurOuter1" result="shadowMatrixOuter1"></feColorMatrix>
            <feOffset dx="0" dy="10" in="SourceAlpha" result="shadowOffsetOuter2"></feOffset>
            <feGaussianBlur stdDeviation="14" in="shadowOffsetOuter2" result="shadowBlurOuter2"></feGaussianBlur>
            <feColorMatrix values="0 0 0 0 0   0 0 0 0 0   0 0 0 0 0  0 0 0 0.08 0" type="matrix" in="shadowBlurOuter2" result="shadowMatrixOuter2"></feColorMatrix>
            <feMorphology radius="4" operator="erode" in="SourceAlpha" result="shadowSpreadOuter3"></feMorphology>
            <feOffset dx="0" dy="7" in="shadowSpreadOuter3" result="shadowOffsetOuter3"></feOffset>
            <feGaussianBlur stdDeviation="5" in="shadowOffsetOuter3" result="shadowBlurOuter3"></feGaussianBlur>
            <feColorMatrix values="0 0 0 0 0   0 0 0 0 0   0 0 0 0 0  0 0 0 0.12 0" type="matrix" in="shadowBlurOuter3" result="shadowMatrixOuter3"></feColorMatrix>
            <feMerge>
                <feMergeNode in="shadowMatrixOuter1"></feMergeNode>
                <feMergeNode in="shadowMatrixOuter2"></feMergeNode>
                <feMergeNode in="shadowMatrixOuter3"></feMergeNode>
            </feMerge>
        </filter>
        <path d="M120.960061,9.29276316 C120.960061,4.16051178 116.787822,0 111.641104,0 L9.31895697,0 C4.17223915,0 0,4.16051178 0,9.29276316 L0,103.707237 C0,108.839488 4.17223915,113 9.31895697,113 L85.2018923,113 C89.3977477,112.996732 93.4077146,111.273405 96.2914511,108.23414 L116.833095,86.5554511 C119.509313,83.736799 121,80.0025952 121,76.1210056 L120.960061,9.29276316 Z" id="path-5"></path>
        <filter x="-51.2%" y="-46.0%" width="202.5%" height="209.7%" filterUnits="objectBoundingBox" id="filter-6">
            <feMorphology radius="4" operator="dilate" in="SourceAlpha" result="shadowSpreadOuter1"></feMorphology>
            <feOffset dx="0" dy="10" in="shadowSpreadOuter1" result="shadowOffsetOuter1"></feOffset>
            <feGaussianBlur stdDeviation="15" in="shadowOffsetOuter1" result="shadowBlurOuter1"></feGaussianBlur>
            <feColorMatrix values="0 0 0 0 0   0 0 0 0 0   0 0 0 0 0  0 0 0 0.05 0" type="matrix" in="shadowBlurOuter1" result="shadowMatrixOuter1"></feColorMatrix>
            <feOffset dx="0" dy="6" in="SourceAlpha" result="shadowOffsetOuter2"></feOffset>
            <feGaussianBlur stdDeviation="8.5" in="shadowOffsetOuter2" result="shadowBlurOuter2"></feGaussianBlur>
            <feColorMatrix values="0 0 0 0 0   0 0 0 0 0   0 0 0 0 0  0 0 0 0.08 0" type="matrix" in="shadowBlurOuter2" result="shadowMatrixOuter2"></feColorMatrix>
            <feMorphology radius="2.5" operator="erode" in="SourceAlpha" result="shadowSpreadOuter3"></feMorphology>
            <feOffset dx="0" dy="4" in="shadowSpreadOuter3" result="shadowOffsetOuter3"></feOffset>
            <feGaussianBlur stdDeviation="3" in="shadowOffsetOuter3" result="shadowBlurOuter3"></feGaussianBlur>
            <feColorMatrix values="0 0 0 0 0   0 0 0 0 0   0 0 0 0 0  0 0 0 0.12 0" type="matrix" in="shadowBlurOuter3" result="shadowMatrixOuter3"></feColorMatrix>
            <feMerge>
                <feMergeNode in="shadowMatrixOuter1"></feMergeNode>
                <feMergeNode in="shadowMatrixOuter2"></feMergeNode>
                <feMergeNode in="shadowMatrixOuter3"></feMergeNode>
            </feMerge>
        </filter>
        <rect id="path-7" x="0" y="0" width="220" height="131" rx="15.7671362"></rect>
        <filter x="-43.0%" y="-60.7%" width="185.9%" height="244.3%" filterUnits="objectBoundingBox" id="filter-8">
            <feMorphology radius="6.5" operator="dilate" in="SourceAlpha" result="shadowSpreadOuter1"></feMorphology>
            <feOffset dx="0" dy="15" in="shadowSpreadOuter1" result="shadowOffsetOuter1"></feOffset>
            <feGaussianBlur stdDeviation="22.5" in="shadowOffsetOuter1" result="shadowBlurOuter1"></feGaussianBlur>
            <feColorMatrix values="0 0 0 0 0   0 0 0 0 0   0 0 0 0 0  0 0 0 0.05 0" type="matrix" in="shadowBlurOuter1" result="shadowMatrixOuter1"></feColorMatrix>
            <feOffset dx="0" dy="9" in="SourceAlpha" result="shadowOffsetOuter2"></feOffset>
            <feGaussianBlur stdDeviation="12.5" in="shadowOffsetOuter2" result="shadowBlurOuter2"></feGaussianBlur>
            <feColorMatrix values="0 0 0 0 0   0 0 0 0 0   0 0 0 0 0  0 0 0 0.08 0" type="matrix" in="shadowBlurOuter2" result="shadowMatrixOuter2"></feColorMatrix>
            <feMorphology radius="3.5" operator="erode" in="SourceAlpha" result="shadowSpreadOuter3"></feMorphology>
            <feOffset dx="0" dy="6" in="shadowSpreadOuter3" result="shadowOffsetOuter3"></feOffset>
            <feGaussianBlur stdDeviation="4.5" in="shadowOffsetOuter3" result="shadowBlurOuter3"></feGaussianBlur>
            <feColorMatrix values="0 0 0 0 0   0 0 0 0 0   0 0 0 0 0  0 0 0 0.12 0" type="matrix" in="shadowBlurOuter3" result="shadowMatrixOuter3"></feColorMatrix>
            <feMerge>
                <feMergeNode in="shadowMatrixOuter1"></feMergeNode>
                <feMergeNode in="shadowMatrixOuter2"></feMergeNode>
                <feMergeNode in="shadowMatrixOuter3"></feMergeNode>
            </feMerge>
        </filter>
        <linearGradient x1="59.619286%" y1="34.1967438%" x2="55.5295369%" y2="54.0965612%" id="linearGradient-9">
            <stop stop-color="#91503F" offset="0%"></stop>
            <stop stop-color="#C48873" offset="100%"></stop>
        </linearGradient>
        <linearGradient x1="57.7247698%" y1="4.33188611e-13%" x2="57.7247698%" y2="102.618758%" id="linearGradient-10">
            <stop stop-color="#91503F" offset="0%"></stop>
            <stop stop-color="#C48873" offset="100%"></stop>
        </linearGradient>
        <path d="M35.8813652,0.00157412215 L301.545865,1.83701551 C318.236395,1.95086285 331.634122,8.29021638 331.634122,16.0707107 L331.634122,16.0707107 L331.634122,75.2796618 C331.634122,79.0893828 328.355132,82.7408282 322.531954,85.4176292 C316.708777,88.0916535 308.827599,89.5661155 300.650842,89.5105802 L300.650842,89.5105802 L30.0996244,87.6834691 C21.8731436,87.6279338 14.0416886,86.0285174 8.3814942,83.2461993 C2.72129976,80.4638812 -0.292498264,76.7346864 0.0224173865,72.9027513 L0.0224173865,72.9027513 L4.9091348,13.6882467 C5.54725335,5.96328767 19.2958077,-0.112273225 35.8813652,0.00157412215" id="path-11"></path>
        <linearGradient x1="77.2981119%" y1="45.6945295%" x2="11.174214%" y2="65.1130755%" id="linearGradient-13">
            <stop stop-color="#91503F" offset="0%"></stop>
            <stop stop-color="#C48873" offset="100%"></stop>
        </linearGradient>
        <linearGradient x1="12.0826561%" y1="45.0346942%" x2="55.5295369%" y2="51.5428211%" id="linearGradient-14">
            <stop stop-color="#91503F" offset="0%"></stop>
            <stop stop-color="#C48873" offset="100%"></stop>
        </linearGradient>
        <path d="M89.2813492,0.138838229 C76.4830667,0.94687672 56.0080246,9.33825927 40.4252248,72.0625943 L40.4252248,72.0625943 L40.281579,72.0431569 L40.3893133,72.1931022 C39.9418016,74.0035527 39.4998147,75.8667617 39.0605903,77.7688455 L39.0605903,77.7688455 C37.8396015,81.4202909 36.1876756,86.4878862 34.6048101,91.7109804 L34.6048101,91.7109804 L34.0108902,93.6908136 C31.7567571,101.290818 29.8203021,108.785306 29.8203021,112.11187 L29.8203021,112.11187 C29.8203021,120.061747 7.66847232,236.683082 5.4530131,241.981149 L5.4530131,241.981149 C4.06351685,245.307713 0.0580107776,272.611639 0,296.433502 L0,296.433502 L0,297.49145 C0.0359114338,311.230881 1.42540768,323.665233 5.4530131,329.446456 L5.4530131,329.446456 C16.5275468,345.34621 44.2677482,352.771279 44.2677482,352.771279 L44.2677482,352.771279 C44.2677482,352.771279 23.1739245,300.290428 65.2621248,297.638618 L65.2621248,297.638618 L60.8312064,276.438021 L93.4719373,146.266074 L93.549285,146.382698 C89.2702995,182.205738 107.673528,213.097244 109.007776,215.285334 L109.007776,215.285334 L109.079599,215.393628 C109.085124,215.407512 106.866902,248.595402 105.201164,283.107809 L105.201164,283.107809 L104.908348,289.327762 C103.41388,321.813131 102.560292,353.782021 104.64868,358.771867 L104.64868,358.771867 C109.085124,369.390215 180.109652,369.390215 197.863713,358.771867 L197.863713,358.771867 C215.620536,348.153519 326.597916,358.771867 326.597916,358.771867 L326.597916,358.771867 C326.597916,358.771867 324.376932,310.983749 313.277536,292.398863 L313.277536,292.398863 C302.830071,274.899693 325.829964,179.739971 328.548183,168.699555 L328.548183,168.699555 L329.106191,168.752314 L359.180636,305.569058 C389.890437,297.621958 395.09207,344.443762 395.09207,344.443762 L395.09207,344.443762 C408.252229,331.201372 423.155474,318.630958 425.348834,305.388568 L425.348834,305.388568 C427.24109,293.959405 425.948278,213.472107 408.556095,169.538138 L408.556095,169.538138 C405.8434,159.216904 399.835141,143.197749 392.550645,126.112317 L392.550645,126.112317 C392.47606,125.765221 392.412524,125.44034 392.332414,125.076584 L392.332414,125.076584 L391.984349,124.798907 C378.445739,93.2187636 360.810462,58.5092064 351.929289,49.9845391 L351.929289,49.9845391 C336.774664,35.4453998 319.097951,40.6379496 319.097951,40.6379496 L319.097951,40.6379496 L296.368776,46.871786 C273.639601,53.100069 170.093125,55.1770889 117.060224,4.29287803 L117.060224,4.29287803 C117.060224,4.29287803 107.670766,0 93.6321575,0 L93.6321575,0 C92.2260868,0 90.7758173,0.0444282332 89.2813492,0.138838229" id="path-15"></path>
        <linearGradient x1="50%" y1="39.462365%" x2="50%" y2="100%" id="linearGradient-17">
            <stop stop-color="#788A98" offset="0%"></stop>
            <stop stop-color="#43525F" offset="100%"></stop>
        </linearGradient>
        <path d="M11.3231513,0 C5.069037,0 0,5.09813976 0,11.3847348 L0,11.3847348 L0,169.404853 C0,175.691448 5.069037,180.786811 11.3231513,180.786811 L11.3231513,180.786811 L275.106445,180.786811 C281.363321,180.786811 286.432358,175.691448 286.432358,169.404853 L286.432358,169.404853 L286.432358,11.3847348 C286.432358,5.09813976 281.363321,0 275.106445,0 L275.106445,0 L11.3231513,0 Z" id="path-18"></path>
        <ellipse id="path-20" cx="68.3334647" cy="68.3605981" rx="68.3334647" ry="68.3605981"></ellipse>
        <filter x="-111.2%" y="-95.1%" width="322.4%" height="322.4%" filterUnits="objectBoundingBox" id="filter-21">
            <feMorphology radius="21.5" operator="dilate" in="SourceAlpha" result="shadowSpreadOuter1"></feMorphology>
            <feOffset dx="0" dy="22" in="shadowSpreadOuter1" result="shadowOffsetOuter1"></feOffset>
            <feGaussianBlur stdDeviation="33.5" in="shadowOffsetOuter1" result="shadowBlurOuter1"></feGaussianBlur>
            <feComposite in="shadowBlurOuter1" in2="SourceAlpha" operator="out" result="shadowBlurOuter1"></feComposite>
            <feColorMatrix values="0 0 0 0 0   0 0 0 0 0   0 0 0 0 0  0 0 0 0.05 0" type="matrix" in="shadowBlurOuter1" result="shadowMatrixOuter1"></feColorMatrix>
            <feMorphology radius="12" operator="dilate" in="SourceAlpha" result="shadowSpreadOuter2"></feMorphology>
            <feOffset dx="0" dy="14" in="shadowSpreadOuter2" result="shadowOffsetOuter2"></feOffset>
            <feGaussianBlur stdDeviation="19" in="shadowOffsetOuter2" result="shadowBlurOuter2"></feGaussianBlur>
            <feComposite in="shadowBlurOuter2" in2="SourceAlpha" operator="out" result="shadowBlurOuter2"></feComposite>
            <feColorMatrix values="0 0 0 0 0   0 0 0 0 0   0 0 0 0 0  0 0 0 0.08 0" type="matrix" in="shadowBlurOuter2" result="shadowMatrixOuter2"></feColorMatrix>
            <feMorphology radius="7" operator="dilate" in="SourceAlpha" result="shadowSpreadOuter3"></feMorphology>
            <feOffset dx="0" dy="7" in="shadowSpreadOuter3" result="shadowOffsetOuter3"></feOffset>
            <feGaussianBlur stdDeviation="7" in="shadowOffsetOuter3" result="shadowBlurOuter3"></feGaussianBlur>
            <feComposite in="shadowBlurOuter3" in2="SourceAlpha" operator="out" result="shadowBlurOuter3"></feComposite>
            <feColorMatrix values="0 0 0 0 0   0 0 0 0 0   0 0 0 0 0  0 0 0 0.12 0" type="matrix" in="shadowBlurOuter3" result="shadowMatrixOuter3"></feColorMatrix>
            <feMerge>
                <feMergeNode in="shadowMatrixOuter1"></feMergeNode>
                <feMergeNode in="shadowMatrixOuter2"></feMergeNode>
                <feMergeNode in="shadowMatrixOuter3"></feMergeNode>
            </feMerge>
        </filter>
        <circle id="path-22" cx="556.277488" cy="250.501339" r="78"></circle>
        <filter x="-39.7%" y="-33.3%" width="179.5%" height="179.5%" filterUnits="objectBoundingBox" id="filter-23">
            <feMorphology radius="4" operator="dilate" in="SourceAlpha" result="shadowSpreadOuter1"></feMorphology>
            <feOffset dx="0" dy="10" in="shadowSpreadOuter1" result="shadowOffsetOuter1"></feOffset>
            <feGaussianBlur stdDeviation="15" in="shadowOffsetOuter1" result="shadowBlurOuter1"></feGaussianBlur>
            <feColorMatrix values="0 0 0 0 0   0 0 0 0 0   0 0 0 0 0  0 0 0 0.05 0" type="matrix" in="shadowBlurOuter1" result="shadowMatrixOuter1"></feColorMatrix>
            <feOffset dx="0" dy="6" in="SourceAlpha" result="shadowOffsetOuter2"></feOffset>
            <feGaussianBlur stdDeviation="8.5" in="shadowOffsetOuter2" result="shadowBlurOuter2"></feGaussianBlur>
            <feColorMatrix values="0 0 0 0 0   0 0 0 0 0   0 0 0 0 0  0 0 0 0.08 0" type="matrix" in="shadowBlurOuter2" result="shadowMatrixOuter2"></feColorMatrix>
            <feMorphology radius="2.5" operator="erode" in="SourceAlpha" result="shadowSpreadOuter3"></feMorphology>
            <feOffset dx="0" dy="4" in="shadowSpreadOuter3" result="shadowOffsetOuter3"></feOffset>
            <feGaussianBlur stdDeviation="3" in="shadowOffsetOuter3" result="shadowBlurOuter3"></feGaussianBlur>
            <feColorMatrix values="0 0 0 0 0   0 0 0 0 0   0 0 0 0 0  0 0 0 0.12 0" type="matrix" in="shadowBlurOuter3" result="shadowMatrixOuter3"></feColorMatrix>
            <feMerge>
                <feMergeNode in="shadowMatrixOuter1"></feMergeNode>
                <feMergeNode in="shadowMatrixOuter2"></feMergeNode>
                <feMergeNode in="shadowMatrixOuter3"></feMergeNode>
            </feMerge>
        </filter>
    </defs>
    <g id="4-responsibility" stroke="none" stroke-width="1" fill="none" fill-rule="evenodd">
        <rect fill="#FFFFFF" x="0" y="0" width="1636" height="1197"></rect>
        <g id="Illustration-IV" transform="translate(183.722512, 134.498661)">
            <mask id="mask-2" fill="white">
                <use xlink:href="#path-1" transform="translate(672.178966, 449.041244) rotate(-4.000000) translate(-672.178966, -449.041244) "></use>
            </mask>
            <use id="Mask" fill="#FFF3FC" transform="translate(672.178966, 449.041244) rotate(-4.000000) translate(-672.178966, -449.041244) " xlink:href="#path-1"></use>
            <g id="Notes" mask="url(#mask-2)">
                <g transform="translate(172.840578, 198.501339)">
                    <g id="Group-8" opacity="0.1171875" transform="translate(159.036910, 0.000000)">
                        <g id="Group-6" transform="translate(36.802527, 72.085905)" fill="#490335" fill-rule="nonzero">
                            <polygon id="Path-11" points="305.802632 0 311.386506 10.6216924 5.58387416 171.383589 0 160.761896"></polygon>
                            <polygon id="Path-11" transform="translate(155.693253, 85.691794) scale(-1, 1) translate(-155.693253, -85.691794) " points="305.802632 0 311.386506 10.6216924 5.58387416 171.383589 0 160.761896"></polygon>
                            <polygon id="Path-11" points="305.802632 172.970829 311.386506 183.592521 5.58387416 344.354418 0 333.732725"></polygon>
                            <polygon id="Path-11" transform="translate(155.693253, 258.662623) scale(-1, 1) translate(-155.693253, -258.662623) " points="305.802632 172.970829 311.386506 183.592521 5.58387416 344.354418 0 333.732725"></polygon>
                            <polygon id="Path-11" points="305.802632 331.527422 311.386506 342.149115 5.58387416 502.911011 0 492.289319"></polygon>
                            <polygon id="Path-11" transform="translate(155.693253, 417.219217) scale(-1, 1) translate(-155.693253, -417.219217) " points="305.802632 331.527422 311.386506 342.149115 5.58387416 502.911011 0 492.289319"></polygon>
                        </g>
                        <path d="M374.4,557.840048 C379.039192,557.840048 382.8,561.600856 382.8,566.240048 C382.8,570.87924 379.039192,574.640048 374.4,574.640048 L8.4,574.640048 C3.7608081,574.640048 0,570.87924 0,566.240048 C0,561.600856 3.7608081,557.840048 8.4,557.840048 L374.4,557.840048 Z" id="Path-9" fill="#861465" fill-rule="nonzero"></path>
                        <path d="M374.319044,394.065526 C378.958021,394.020816 382.754899,397.745204 382.800008,402.38418 C382.84432,407.023157 379.119932,410.820035 374.480956,410.864746 L8.49696107,414.392109 C3.85798462,414.43682 0.061106103,410.712431 0.0159971508,406.073455 C-0.0283150439,401.434478 3.69607331,397.6376 8.33504976,397.592889 L374.319044,394.065526 Z" id="Path-9" fill="#861465" fill-rule="nonzero"></path>
                        <path d="M374.4,232.771663 C379.039192,232.771663 382.8,236.532471 382.8,241.171663 C382.8,245.810854 379.039192,249.571663 374.4,249.571663 L8.4,249.571663 C3.7608081,249.571663 0,245.810854 0,241.171663 C0,236.532471 3.7608081,232.771663 8.4,232.771663 L374.4,232.771663 Z" id="Path-9" fill="#861465" fill-rule="nonzero"></path>
                        <path d="M374.319044,68.997141 C378.958021,68.9524305 382.754899,72.6768188 382.800008,77.3157953 C382.84432,81.9547717 379.119932,85.7516502 374.480956,85.7963608 L8.49696107,89.3237239 C3.85798462,89.3684345 0.061106103,85.6440461 0.0159971508,81.0050697 C-0.0283150439,76.3660932 3.69607331,72.5692147 8.33504976,72.5245041 L374.319044,68.997141 Z" id="Path-9" fill="#861465" fill-rule="nonzero"></path>
                        <polygon id="Path-10" fill="#861465" fill-rule="nonzero" points="28.7944644 0 28.7944644 636 50.3944644 636 50.3944644 0"></polygon>
                        <polygon id="Path-10" fill="#861465" fill-rule="nonzero" points="334.597096 0 334.597096 636 356.197096 636 356.197096 0"></polygon>
                        <line x1="345.397096" y1="18.840795" x2="345.397096" y2="617.02501" id="Path-12" fill="#D8D8D8"></line>
                        <path d="M345.397096,591.240795 C347.385321,591.240795 348.997096,592.85257 348.997096,594.840795 L348.997096,617.02501 C348.997096,619.013235 347.385321,620.62501 345.397096,620.62501 C343.408871,620.62501 341.797096,619.013235 341.797096,617.02501 L341.797096,594.840795 C341.797096,592.85257 343.408871,591.240795 345.397096,591.240795 Z M345.397096,543.240795 C347.385321,543.240795 348.997096,544.85257 348.997096,546.840795 L348.997096,570.840795 C348.997096,572.82902 347.385321,574.440795 345.397096,574.440795 C343.408871,574.440795 341.797096,572.82902 341.797096,570.840795 L341.797096,546.840795 C341.797096,544.85257 343.408871,543.240795 345.397096,543.240795 Z M345.397096,495.240795 C347.385321,495.240795 348.997096,496.85257 348.997096,498.840795 L348.997096,522.840795 C348.997096,524.82902 347.385321,526.440795 345.397096,526.440795 C343.408871,526.440795 341.797096,524.82902 341.797096,522.840795 L341.797096,498.840795 C341.797096,496.85257 343.408871,495.240795 345.397096,495.240795 Z M345.397096,447.240795 C347.385321,447.240795 348.997096,448.85257 348.997096,450.840795 L348.997096,474.840795 C348.997096,476.82902 347.385321,478.440795 345.397096,478.440795 C343.408871,478.440795 341.797096,476.82902 341.797096,474.840795 L341.797096,450.840795 C341.797096,448.85257 343.408871,447.240795 345.397096,447.240795 Z M345.397096,399.240795 C347.385321,399.240795 348.997096,400.85257 348.997096,402.840795 L348.997096,426.840795 C348.997096,428.82902 347.385321,430.440795 345.397096,430.440795 C343.408871,430.440795 341.797096,428.82902 341.797096,426.840795 L341.797096,402.840795 C341.797096,400.85257 343.408871,399.240795 345.397096,399.240795 Z M345.397096,351.240795 C347.385321,351.240795 348.997096,352.85257 348.997096,354.840795 L348.997096,378.840795 C348.997096,380.82902 347.385321,382.440795 345.397096,382.440795 C343.408871,382.440795 341.797096,380.82902 341.797096,378.840795 L341.797096,354.840795 C341.797096,352.85257 343.408871,351.240795 345.397096,351.240795 Z M345.397096,303.240795 C347.385321,303.240795 348.997096,304.85257 348.997096,306.840795 L348.997096,330.840795 C348.997096,332.82902 347.385321,334.440795 345.397096,334.440795 C343.408871,334.440795 341.797096,332.82902 341.797096,330.840795 L341.797096,306.840795 C341.797096,304.85257 343.408871,303.240795 345.397096,303.240795 Z M345.397096,255.240795 C347.385321,255.240795 348.997096,256.85257 348.997096,258.840795 L348.997096,282.840795 C348.997096,284.82902 347.385321,286.440795 345.397096,286.440795 C343.408871,286.440795 341.797096,284.82902 341.797096,282.840795 L341.797096,258.840795 C341.797096,256.85257 343.408871,255.240795 345.397096,255.240795 Z M345.397096,207.240795 C347.385321,207.240795 348.997096,208.85257 348.997096,210.840795 L348.997096,234.840795 C348.997096,236.82902 347.385321,238.440795 345.397096,238.440795 C343.408871,238.440795 341.797096,236.82902 341.797096,234.840795 L341.797096,210.840795 C341.797096,208.85257 343.408871,207.240795 345.397096,207.240795 Z M345.397096,159.240795 C347.385321,159.240795 348.997096,160.85257 348.997096,162.840795 L348.997096,186.840795 C348.997096,188.82902 347.385321,190.440795 345.397096,190.440795 C343.408871,190.440795 341.797096,188.82902 341.797096,186.840795 L341.797096,162.840795 C341.797096,160.85257 343.408871,159.240795 345.397096,159.240795 Z M345.397096,111.240795 C347.385321,111.240795 348.997096,112.85257 348.997096,114.840795 L348.997096,138.840795 C348.997096,140.82902 347.385321,142.440795 345.397096,142.440795 C343.408871,142.440795 341.797096,140.82902 341.797096,138.840795 L341.797096,114.840795 C341.797096,112.85257 343.408871,111.240795 345.397096,111.240795 Z M345.397096,63.240795 C347.385321,63.240795 348.997096,64.8525699 348.997096,66.840795 L348.997096,90.840795 C348.997096,92.8290201 347.385321,94.440795 345.397096,94.440795 C343.408871,94.440795 341.797096,92.8290201 341.797096,90.840795 L341.797096,66.840795 C341.797096,64.8525699 343.408871,63.240795 345.397096,63.240795 Z M345.397096,15.240795 C347.385321,15.240795 348.997096,16.8525699 348.997096,18.840795 L348.997096,42.840795 C348.997096,44.8290201 347.385321,46.440795 345.397096,46.440795 C343.408871,46.440795 341.797096,44.8290201 341.797096,42.840795 L341.797096,18.840795 C341.797096,16.8525699 343.408871,15.240795 345.397096,15.240795 Z" id="Path-12" fill="#861465" fill-rule="nonzero"></path>
                        <line x1="39.5944644" y1="18.840795" x2="39.5944644" y2="617.02501" id="Path-12" fill="#D8D8D8"></line>
                        <path d="M39.5944644,591.240795 C41.5826895,591.240795 43.1944644,592.85257 43.1944644,594.840795 L43.1944644,617.02501 C43.1944644,619.013235 41.5826895,620.62501 39.5944644,620.62501 C37.6062393,620.62501 35.9944644,619.013235 35.9944644,617.02501 L35.9944644,594.840795 C35.9944644,592.85257 37.6062393,591.240795 39.5944644,591.240795 Z M39.5944644,543.240795 C41.5826895,543.240795 43.1944644,544.85257 43.1944644,546.840795 L43.1944644,570.840795 C43.1944644,572.82902 41.5826895,574.440795 39.5944644,574.440795 C37.6062393,574.440795 35.9944644,572.82902 35.9944644,570.840795 L35.9944644,546.840795 C35.9944644,544.85257 37.6062393,543.240795 39.5944644,543.240795 Z M39.5944644,495.240795 C41.5826895,495.240795 43.1944644,496.85257 43.1944644,498.840795 L43.1944644,522.840795 C43.1944644,524.82902 41.5826895,526.440795 39.5944644,526.440795 C37.6062393,526.440795 35.9944644,524.82902 35.9944644,522.840795 L35.9944644,498.840795 C35.9944644,496.85257 37.6062393,495.240795 39.5944644,495.240795 Z M39.5944644,447.240795 C41.5826895,447.240795 43.1944644,448.85257 43.1944644,450.840795 L43.1944644,474.840795 C43.1944644,476.82902 41.5826895,478.440795 39.5944644,478.440795 C37.6062393,478.440795 35.9944644,476.82902 35.9944644,474.840795 L35.9944644,450.840795 C35.9944644,448.85257 37.6062393,447.240795 39.5944644,447.240795 Z M39.5944644,399.240795 C41.5826895,399.240795 43.1944644,400.85257 43.1944644,402.840795 L43.1944644,426.840795 C43.1944644,428.82902 41.5826895,430.440795 39.5944644,430.440795 C37.6062393,430.440795 35.9944644,428.82902 35.9944644,426.840795 L35.9944644,402.840795 C35.9944644,400.85257 37.6062393,399.240795 39.5944644,399.240795 Z M39.5944644,351.240795 C41.5826895,351.240795 43.1944644,352.85257 43.1944644,354.840795 L43.1944644,378.840795 C43.1944644,380.82902 41.5826895,382.440795 39.5944644,382.440795 C37.6062393,382.440795 35.9944644,380.82902 35.9944644,378.840795 L35.9944644,354.840795 C35.9944644,352.85257 37.6062393,351.240795 39.5944644,351.240795 Z M39.5944644,303.240795 C41.5826895,303.240795 43.1944644,304.85257 43.1944644,306.840795 L43.1944644,330.840795 C43.1944644,332.82902 41.5826895,334.440795 39.5944644,334.440795 C37.6062393,334.440795 35.9944644,332.82902 35.9944644,330.840795 L35.9944644,306.840795 C35.9944644,304.85257 37.6062393,303.240795 39.5944644,303.240795 Z M39.5944644,255.240795 C41.5826895,255.240795 43.1944644,256.85257 43.1944644,258.840795 L43.1944644,282.840795 C43.1944644,284.82902 41.5826895,286.440795 39.5944644,286.440795 C37.6062393,286.440795 35.9944644,284.82902 35.9944644,282.840795 L35.9944644,258.840795 C35.9944644,256.85257 37.6062393,255.240795 39.5944644,255.240795 Z M39.5944644,207.240795 C41.5826895,207.240795 43.1944644,208.85257 43.1944644,210.840795 L43.1944644,234.840795 C43.1944644,236.82902 41.5826895,238.440795 39.5944644,238.440795 C37.6062393,238.440795 35.9944644,236.82902 35.9944644,234.840795 L35.9944644,210.840795 C35.9944644,208.85257 37.6062393,207.240795 39.5944644,207.240795 Z M39.5944644,159.240795 C41.5826895,159.240795 43.1944644,160.85257 43.1944644,162.840795 L43.1944644,186.840795 C43.1944644,188.82902 41.5826895,190.440795 39.5944644,190.440795 C37.6062393,190.440795 35.9944644,188.82902 35.9944644,186.840795 L35.9944644,162.840795 C35.9944644,160.85257 37.6062393,159.240795 39.5944644,159.240795 Z M39.5944644,111.240795 C41.5826895,111.240795 43.1944644,112.85257 43.1944644,114.840795 L43.1944644,138.840795 C43.1944644,140.82902 41.5826895,142.440795 39.5944644,142.440795 C37.6062393,142.440795 35.9944644,140.82902 35.9944644,138.840795 L35.9944644,114.840795 C35.9944644,112.85257 37.6062393,111.240795 39.5944644,111.240795 Z M39.5944644,63.240795 C41.5826895,63.240795 43.1944644,64.8525699 43.1944644,66.840795 L43.1944644,90.840795 C43.1944644,92.8290201 41.5826895,94.440795 39.5944644,94.440795 C37.6062393,94.440795 35.9944644,92.8290201 35.9944644,90.840795 L35.9944644,66.840795 C35.9944644,64.8525699 37.6062393,63.240795 39.5944644,63.240795 Z M39.5944644,15.240795 C41.5826895,15.240795 43.1944644,16.8525699 43.1944644,18.840795 L43.1944644,42.840795 C43.1944644,44.8290201 41.5826895,46.440795 39.5944644,46.440795 C37.6062393,46.440795 35.9944644,44.8290201 35.9944644,42.840795 L35.9944644,18.840795 C35.9944644,16.8525699 37.6062393,15.240795 39.5944644,15.240795 Z" id="Path-12" fill="#861465" fill-rule="nonzero"></path>
                        <path d="M41.4,618 C62.9391052,618 80.4,635.460895 80.4,657 L80.4,660 L80.4,660 L2.4,660 L2.4,657 C2.4,635.460895 19.8608948,618 41.4,618 Z" id="Rectangle" fill="#861465"></path>
                        <path d="M347.4,618 C368.939105,618 386.4,635.460895 386.4,657 L386.4,660 L386.4,660 L308.4,660 L308.4,657 C308.4,635.460895 325.860895,618 347.4,618 Z" id="Rectangle" fill="#43525F"></path>
                    </g>
                    <g id="Group" transform="translate(877.139822, 235.500000) rotate(6.000000) translate(-877.139822, -235.500000) translate(776.139822, 141.000000)">
                        <g id="Path">
                            <use fill="black" fill-opacity="1" filter="url(#filter-4)" xlink:href="#path-3"></use>
                            <use fill="#FFFFFF" fill-rule="evenodd" xlink:href="#path-3"></use>
                        </g>
                        <path d="M149.349763,142.549342 L149.349763,188.023026 C153.655708,186.753696 157.550174,184.371708 160.639894,181.117599 L194.932556,144.858553 C198.525934,141.051006 200.854521,136.22757 201.599956,131.047612 L160.90659,131.047612 C157.845624,131.03589 154.905973,132.242452 152.737361,134.40071 C150.568748,136.558968 149.349763,139.491206 149.349763,142.549342 Z" id="Sticky" fill="#861465"></path>
                        <rect id="Rectangle" fill="#861465" fill-rule="nonzero" opacity="0.190917969" style="mix-blend-mode: multiply;" x="48.9831664" y="49.8922697" width="103.922544" height="20.7162829" rx="4.257792"></rect>
                        <rect id="Rectangle" fill="#861465" fill-rule="nonzero" opacity="0.190917969" style="mix-blend-mode: multiply;" x="48.9831664" y="94.5222039" width="103.922544" height="20.7162829" rx="4.257792"></rect>
                    </g>
                    <g id="Group-Copy" transform="translate(64.293866, 199.500000) rotate(-4.000000) translate(-64.293866, -199.500000) translate(3.793866, 143.000000)">
                        <g id="Path">
                            <use fill="black" fill-opacity="1" filter="url(#filter-6)" xlink:href="#path-5"></use>
                            <use fill="#FFFFFF" fill-rule="evenodd" xlink:href="#path-5"></use>
                        </g>
                        <path d="M89.4619869,85.2279135 L89.4619869,112.415883 C92.0412905,111.656972 94.3741143,110.23282 96.2248871,108.287242 L116.766531,86.6085526 C118.919,84.3320831 120.313847,81.4482295 120.76037,78.3512175 L96.3846407,78.3512175 C94.5510914,78.3442093 92.7902117,79.0655932 91.4911913,80.3559802 C90.1921708,81.6463672 89.4619869,83.3995044 89.4619869,85.2279135 Z" id="Sticky" fill="#262626"></path>
                        <rect id="Rectangle" fill="#262626" fill-rule="nonzero" opacity="0.190917969" style="mix-blend-mode: multiply;" x="29.3414017" y="29.8297697" width="62.2506326" height="12.3859258" rx="2.5546752"></rect>
                        <rect id="Rectangle" fill="#262626" fill-rule="nonzero" opacity="0.190917969" style="mix-blend-mode: multiply;" x="29.3414017" y="56.5132754" width="62.2506326" height="12.3859258" rx="2.5546752"></rect>
                    </g>
                    <g id="Group-2" transform="translate(894.436910, 445.500000) rotate(-3.000000) translate(-894.436910, -445.500000) translate(784.436910, 380.000000)">
                        <g id="Rectangle">
                            <use fill="black" fill-opacity="1" filter="url(#filter-8)" xlink:href="#path-7"></use>
                            <use fill="#FFFFFF" fill-rule="evenodd" xlink:href="#path-7"></use>
                        </g>
                        <rect id="Rectangle" fill="#262626" fill-rule="nonzero" opacity="0.6" style="mix-blend-mode: multiply;" x="96.0565839" y="36.34481" width="93.7392288" height="18.5022092" rx="3.8320128"></rect>
                        <rect id="Rectangle" fill="#262626" fill-rule="nonzero" opacity="0.190917969" style="mix-blend-mode: multiply;" x="96.0565839" y="68.1023857" width="60" height="7.93939394" rx="3.83201271"></rect>
                        <ellipse id="Note" fill="#861465" cx="49.9531583" cy="59.4773129" rx="30.0082662" ry="29.7386565"></ellipse>
                    </g>
                </g>
            </g>
            <g id="Lady" mask="url(#mask-2)">
                <g transform="translate(549.277488, 239.869012)">
                    <path d="M285.337574,48.017321 C303.036386,66.4439307 335.710266,209.455637 323.190988,240.247179 C316.192447,257.461478 296.712935,357.796746 259,372.632328 C251.05738,375.75681 242.429909,375.633104 233.682819,373.404603 C231.778665,391.907125 228.374724,406.031587 223,413.632328 C195.744201,452.18462 113.276072,463.224084 60.0553111,440.634904 C44.4291652,434.573042 31.0229788,424.726716 22.050964,410.619179 C-33.1421473,323.825849 51.0950267,258.002645 78.5147876,245.029601 C177.483937,198.207796 129.904049,66.8807157 207.936833,28.0532167 L207.939628,28.0717683 L208.005925,28.0604476 C240.9369,9.63771763 266.017416,27.9059093 285.337574,48.017321 Z" id="Combined-Shape" fill="#172635"></path>
                    <path d="M216.954784,117.510189 C216.954784,117.510189 267.689352,143.697856 259.462871,162.996369 C252.626059,179.03255 246.735594,218.869444 245.727065,244.529486 C277.423524,269.604182 331.368327,269.921482 351.92846,298.203146 L239.02946,279.101489 C231.139954,289.240235 217.853094,294.698154 207.355381,291.180153 C204.071591,290.08024 201.279296,288.156878 198.913103,285.78251 L31.1951576,412.702755 C34.9824326,330.202303 57.7143702,238.302502 84.2308204,232.038122 C106.529847,226.770086 163.657235,240.701365 187.271592,229.118823 C189.285399,202.444036 196.045596,161.162876 216.954784,117.510189 Z" id="Combined-Shape" fill="url(#linearGradient-9)"></path>
                    <line x1="314.982501" y1="344.592885" x2="105.696189" y2="354.253249" id="Fill-15" fill="#253242"></line>
                    <g id="Group-7" stroke-width="1" fill="none" transform="translate(141.098110, 0.000000)">
                        <path d="M19.7295308,147.282404 C22.9310638,175.032242 33.2277337,165.565076 39.1300246,166.764517 C45.0323155,167.963958 44.2916763,222.240406 105.001124,217.497113 C105.35726,217.469311 104.755666,217.529097 105.093882,217.415842 C151.663782,201.821478 151.589709,167.746297 155.325299,134.250921 C159.060889,100.755545 158.371934,48.5952148 118.634705,44.5946861 C78.5521039,40.5591329 22.0689686,43.2169588 25.5778585,120.875178 C25.5778585,120.875178 16.5241171,119.532568 19.7295308,147.282404 Z" id="Fill-106" fill="url(#linearGradient-10)" transform="translate(87.911558, 130.620656) rotate(14.000000) translate(-87.911558, -130.620656) "></path>
                        <g id="Group-6" transform="translate(94.728688, 144.928446) rotate(8.000000) translate(-94.728688, -144.928446) translate(49.097587, 131.651347)">
                            <g id="Group-5" transform="translate(59.518827, 0.000000)">
                                <ellipse id="Oval" fill="#182636" cx="15.1086254" cy="19.3121434" rx="7.32539413" ry="7.24205378"></ellipse>
                                <path d="M31.6916028,6.51502384 C32.0229453,6.05883478 30.76623,4.34861511 27.8522263,2.68325347 C25.0077892,1.02201727 20.2892343,-0.392995332 15.1865136,0.0991601124 C9.88737541,0.603604613 5.66082384,2.87988594 3.13656013,5.05788302 C1.86829013,6.14688024 1.00102891,7.17019656 0.493820503,7.99217817 C0.0111593957,8.7936128 -0.107372686,9.33205678 0.0931973927,9.55406452 C0.30195167,9.77607401 0.85025271,9.61999485 1.65220563,9.23789533 C2.4255128,8.85167919 3.50977925,8.30933276 4.83953881,7.63961512 C7.45405437,6.33716425 11.2879742,4.8746683 15.5027316,4.46864114 C19.9179986,4.05032581 23.8138615,4.76638398 26.670347,5.5438751 C29.5186452,6.30903309 31.3316337,7.04108446 31.6916028,6.51502384" id="Fill-109" fill="#172635" transform="translate(15.871687, 4.828036) scale(-1, 1) translate(-15.871687, -4.828036) "></path>
                            </g>
                            <g id="Group-5-Copy" transform="translate(15.871687, 13.277099) scale(-1, 1) translate(-15.871687, -13.277099) translate(0.000000, -0.000000)">
                                <ellipse id="Oval" fill="#182636" cx="15.1086254" cy="19.3121434" rx="7.32539413" ry="7.24205378"></ellipse>
                                <path d="M31.6916028,6.51502384 C32.0229453,6.05883478 30.76623,4.34861511 27.8522263,2.68325347 C25.0077892,1.02201727 20.2892343,-0.392995332 15.1865136,0.0991601124 C9.88737541,0.603604613 5.66082384,2.87988594 3.13656013,5.05788302 C1.86829013,6.14688024 1.00102891,7.17019656 0.493820503,7.99217817 C0.0111593957,8.7936128 -0.107372686,9.33205678 0.0931973927,9.55406452 C0.30195167,9.77607401 0.85025271,9.61999485 1.65220563,9.23789533 C2.4255128,8.85167919 3.50977925,8.30933276 4.83953881,7.63961512 C7.45405437,6.33716425 11.2879742,4.8746683 15.5027316,4.46864114 C19.9179986,4.05032581 23.8138615,4.76638398 26.670347,5.5438751 C29.5186452,6.30903309 31.3316337,7.04108446 31.6916028,6.51502384" id="Fill-109" fill="#172635" transform="translate(15.871687, 4.828036) scale(-1, 1) translate(-15.871687, -4.828036) "></path>
                            </g>
                        </g>
                        <path d="M28.2051939,116.324897 C29.0918044,119.530755 29.243596,139.514455 28.6605687,176.275994 C37.8442862,144.758036 50.9367539,127.055238 67.9379721,123.1676 C93.4397993,117.336143 98.9886589,110.88776 117.21127,93.9191489 C119.828102,91.4891079 122.32515,88.8859505 124.597985,86.1449412 C124.613342,86.1802056 124.619485,86.2122642 124.634842,86.2475287 C130.934282,101.869679 142.095746,115.895312 156.528251,126.356029 C158.149949,127.532579 160.011217,128.728365 162.105912,128.648218 C165.43838,128.526396 167.462432,125.407095 168.853776,122.694938 C174.004512,112.62213 173.806437,115.768151 174.218005,104.695115 C174.620358,93.6252841 171.538178,63.7042552 156.528251,43.4592564 C130.31693,20.3898959 99.3910122,17.3539476 63.7474249,34.3514113 C10.2835798,59.847607 23.5704525,99.6127543 28.2051939,116.324897 Z" id="Fill-53" fill="#172635"></path>
                        <ellipse id="Oval" fill="#1B2635" transform="translate(167.398186, 64.252496) rotate(15.000000) translate(-167.398186, -64.252496) " cx="167.398186" cy="64.2524961" rx="30.5" ry="33.5"></ellipse>
                        <ellipse id="Oval-Copy" fill="#1B2635" transform="translate(56.398186, 40.252496) rotate(15.000000) translate(-56.398186, -40.252496) " cx="56.3981861" cy="40.2524961" rx="30.5" ry="33.5"></ellipse>
                    </g>
                    <g id="Group-23" stroke-width="1" fill="none" transform="translate(38.596362, 572.120234)">
                        <path d="M331.634498,75.276885 L331.634498,16.067934 C331.634498,8.29021638 318.234009,1.95086285 301.546242,1.83423874 L35.8789794,0.00157412215 C19.2961843,-0.112273225 5.54762998,5.96328767 4.90951142,13.6882467 L0.0227940122,72.9027513 C-0.294884056,76.7346864 2.71891396,80.4638812 8.38187083,83.2461993 C14.0420653,86.0285174 21.8735203,87.6279338 30.100001,87.6834691 L300.651218,89.5105802 C308.827975,89.5661155 316.709154,88.0916535 322.532331,85.4148525 C328.355508,82.7408282 331.634498,79.086606 331.634498,75.276885" id="Fill-21" fill="#DCDCDC" fill-rule="nonzero"></path>
                    </g>
                    <g id="Group-26" stroke-width="1" fill="none" transform="translate(38.596186, 556.685310)">
                        <mask id="mask-12" fill="white">
                            <use xlink:href="#path-11"></use>
                        </mask>
                        <g id="Clip-25"></g>
                        <path d="M331.634122,75.2796618 L331.634122,16.0707107 C331.634122,8.29021638 318.236395,1.95086285 301.545865,1.83701551 L35.8813652,0.00157412215 C19.2958077,-0.112273225 5.54725335,5.96328767 4.9091348,13.6882467 L0.0224173865,72.9027513 C-0.292498264,76.7346864 2.72129976,80.4638812 8.3814942,83.2461993 C14.0416886,86.0285174 21.8731436,87.6279338 30.0996244,87.6834691 L300.650842,89.5105802 C308.827599,89.5661155 316.708777,88.0916535 322.531954,85.4176292 C328.355132,82.7408282 331.634122,79.0893828 331.634122,75.2796618" id="Fill-24" fill="#EDEDED" mask="url(#mask-12)"></path>
                    </g>
                    <path d="M412.891157,551.317177 C412.891157,551.317177 392.777992,588.225931 341.374918,596.136934 C289.971844,604.045159 281.03266,582.952856 285.502252,577.682556 C289.971844,572.40948 343.609714,548.682027 343.609714,548.682027 L374.89686,519.681498 L412.891157,551.317177 Z" id="Fill-27" fill="url(#linearGradient-13)"></path>
                    <path d="M48.7312632,519.680387 L105.910553,559.060462 C105.910553,559.060462 180.686445,553.809601 152.095419,580.06391 C123.504393,606.318219 70.7228727,595.816495 70.7228727,595.816495 L20.140237,566.938144 L48.7312632,519.680387 Z" id="Fill-29" fill="url(#linearGradient-14)"></path>
                    <g id="Group-34" stroke-width="1" fill="none" transform="translate(0.000000, 228.456651)">
                        <mask id="mask-16" fill="white">
                            <use xlink:href="#path-15"></use>
                        </mask>
                        <g id="Clip-33"></g>
                        <path d="M89.2813492,0.138838229 C76.4830667,0.94687672 56.0080246,9.33825927 40.4252248,72.0625943 L40.4252248,72.0625943 L40.281579,72.0431569 L40.3893133,72.1931022 C39.9418016,74.0035527 39.4998147,75.8667617 39.0605903,77.7688455 L39.0605903,77.7688455 C37.8396015,81.4202909 36.1876756,86.4878862 34.6048101,91.7109804 L34.6048101,91.7109804 L34.0108902,93.6908136 C31.7567571,101.290818 29.8203021,108.785306 29.8203021,112.11187 L29.8203021,112.11187 C29.8203021,120.061747 7.66847232,236.683082 5.4530131,241.981149 L5.4530131,241.981149 C4.06351685,245.307713 0.0580107776,272.611639 0,296.433502 L0,296.433502 L0,297.49145 C0.0359114338,311.230881 1.42540768,323.665233 5.4530131,329.446456 L5.4530131,329.446456 C16.5275468,345.34621 44.2677482,352.771279 44.2677482,352.771279 L44.2677482,352.771279 C44.2677482,352.771279 23.1739245,300.290428 65.2621248,297.638618 L65.2621248,297.638618 L60.8312064,276.438021 L93.4719373,146.266074 L93.549285,146.382698 C89.2702995,182.205738 107.673528,213.097244 109.007776,215.285334 L109.007776,215.285334 L109.079599,215.393628 C109.085124,215.407512 106.866902,248.595402 105.201164,283.107809 L105.201164,283.107809 L104.908348,289.327762 C103.41388,321.813131 102.560292,353.782021 104.64868,358.771867 L104.64868,358.771867 C109.085124,369.390215 180.109652,369.390215 197.863713,358.771867 L197.863713,358.771867 C215.620536,348.153519 326.597916,358.771867 326.597916,358.771867 L326.597916,358.771867 C326.597916,358.771867 324.376932,310.983749 313.277536,292.398863 L313.277536,292.398863 C302.830071,274.899693 325.829964,179.739971 328.548183,168.699555 L328.548183,168.699555 L329.106191,168.752314 L359.180636,305.569058 C389.890437,297.621958 395.09207,344.443762 395.09207,344.443762 L395.09207,344.443762 C408.252229,331.201372 423.155474,318.630958 425.348834,305.388568 L425.348834,305.388568 C427.24109,293.959405 425.948278,213.472107 408.556095,169.538138 L408.556095,169.538138 C405.8434,159.216904 399.835141,143.197749 392.550645,126.112317 L392.550645,126.112317 C392.47606,125.765221 392.412524,125.44034 392.332414,125.076584 L392.332414,125.076584 L391.984349,124.798907 C378.445739,93.2187636 360.810462,58.5092064 351.929289,49.9845391 L351.929289,49.9845391 C336.774664,35.4453998 319.097951,40.6379496 319.097951,40.6379496 L319.097951,40.6379496 L296.368776,46.871786 C273.639601,53.100069 170.093125,55.1770889 117.060224,4.29287803 L117.060224,4.29287803 C117.060224,4.29287803 107.670766,0 93.6321575,0 L93.6321575,0 C92.2260868,0 90.7758173,0.0444282332 89.2813492,0.138838229" id="Fill-32" fill="url(#linearGradient-17)" mask="url(#mask-16)"></path>
                    </g>
                    <g id="Group-41" stroke-width="1" fill="none" transform="translate(92.230842, 300.979910)">
                        <path d="M236.563749,96.983501 C236.563749,96.983501 239.326167,52.5552678 232.997467,28.314113 C227.475393,7.16627402 195.929961,163.625851 195.929961,163.625851 L222.751659,163.625851 L236.563749,96.983501 Z" id="Fill-37" fill="#364553" opacity="0.280064174"></path>
                        <path d="M2.94376455,105.10242 C2.94376455,105.10242 11.9427526,133.19549 10.074561,83.7553454 C8.20636944,34.3152012 23.8855053,0 23.8855053,0 C23.8855053,0 -9.99004572,51.2662139 2.94376455,105.10242 Z" id="Fill-39" fill="#364553" opacity="0.380812872"></path>
                    </g>
                    <g id="Group-44" stroke-width="1" fill="none" transform="translate(59.676516, 464.623255)">
                        <mask id="mask-19" fill="white">
                            <use xlink:href="#path-18"></use>
                        </mask>
                        <g id="Clip-43"></g>
                        <path d="M11.3231513,0 C5.069037,0 0,5.09813976 0,11.3847348 L0,11.3847348 L0,169.404853 C0,175.691448 5.069037,180.786811 11.3231513,180.786811 L11.3231513,180.786811 L275.106445,180.786811 C281.363321,180.786811 286.432358,175.691448 286.432358,169.404853 L286.432358,169.404853 L286.432358,11.3847348 C286.432358,5.09813976 281.363321,0 275.106445,0 L275.106445,0 L11.3231513,0 Z" id="Fill-42" fill="#262626" fill-rule="nonzero" mask="url(#mask-19)"></path>
                    </g>
                </g>
            </g>
            <g id="Group-3" mask="url(#mask-2)">
                <g transform="translate(280.890728, 626.501339) rotate(-10.000000) translate(-280.890728, -626.501339) translate(161.890728, 547.501339)">
                    <rect id="Envelope" fill="#861465" x="0" y="2.48306728e-05" width="238" height="157.999975" rx="17.51904"></rect>
                    <path d="M130.755285,90.9327069 L235.550982,7.68135003 C232.594549,2.89871952 227.359422,-0.00980370438 221.725164,0 L16.2748363,0 C10.6484999,-0.00208845414 5.42356231,2.90545567 2.47128157,7.68135003 L107.266978,90.9327069 C114.143415,96.3802712 123.878849,96.3802712 130.755285,90.9327069 L130.755285,90.9327069 Z" id="Path" fill="#B672A3"></path>
                </g>
            </g>
            <g id="Group" transform="translate(237.277488, 113.501339)">
                <g id="Oval">
                    <use fill="black" fill-opacity="1" filter="url(#filter-21)" xlink:href="#path-20"></use>
                    <ellipse stroke="#262626" stroke-width="12" fill="#FFFFFF" fill-rule="evenodd" cx="68.3334647" cy="68.3605981" rx="74.3334647" ry="74.3605981"></ellipse>
                </g>
                <text id="4" font-family="OpenSans-ExtraBold, Open Sans" font-size="72" font-weight="700" fill="#262626">
                    <tspan x="48.6349938" y="95.5557522">4</tspan>
                </text>
            </g>
            <g id="Oval">
                <use fill="black" fill-opacity="1" filter="url(#filter-23)" xlink:href="#path-22"></use>
                <use fill="#FFFFFF" fill-rule="evenodd" xlink:href="#path-22"></use>
            </g>
            <g id="" transform="translate(513.277488, 208.501339)" fill="#861465" fill-rule="nonzero">
                <path d="M51.6433095,15.4244579 C51.1917824,14.0698793 51.4739872,12.884623 52.4899211,11.868689 L63.32655,1.03206014 C64.2296016,0.129008593 65.301978,-0.181417394 66.5436742,0.100787344 C67.7853704,0.382992083 68.631982,1.14494255 69.0835091,2.38663875 L72.131311,11.868689 L81.6133613,14.9164909 C82.8550574,15.368018 83.6170079,16.2146296 83.8992127,17.4563258 C84.1814174,18.698022 83.8709914,19.7703984 82.9679399,20.67345 L72.131311,31.5100789 C71.115377,32.5260128 69.9301207,32.8082176 68.5755421,32.3566905 L60.2787481,29.4782109 L44.8704165,44.8865426 C44.0802447,45.6767144 43.1207533,46.0717989 41.9919369,46.0717989 C40.8631205,46.0717989 39.9036291,45.6767144 39.1134574,44.8865426 C38.3232856,44.0963709 37.9282011,43.1368795 37.9282011,42.0080631 C37.9282011,40.8792467 38.3232856,39.9197553 39.1134574,39.1295835 L54.5217891,23.7212519 L51.6433095,15.4244579 Z M41.9919369,24.3985412 C38.8312526,24.3985412 35.8963332,25.1887129 33.1871759,26.7690537 C30.4780187,28.3493946 28.3332684,30.4941449 26.7529275,33.2033021 C25.1725867,35.9124593 24.382415,38.8473788 24.382415,42.0080631 C24.382415,45.1687474 25.1725867,48.1036668 26.7529275,50.8128241 C28.3332684,53.5219813 30.4780187,55.6667316 33.1871759,57.2470725 C35.8963332,58.8274133 38.8312526,59.617585 41.9919369,59.617585 C45.1526212,59.617585 48.0875407,58.8274133 50.7966979,57.2470725 C53.5058551,55.6667316 55.6506054,53.5219813 57.2309463,50.8128241 C58.8112871,48.1036668 59.6014588,45.1687474 59.6014588,42.0080631 C59.6014588,40.7663669 59.4321365,39.5246681 59.0934919,38.2829719 L61.6333268,35.743137 L67.2209635,37.6056826 C67.5596082,39.2989059 67.7289305,40.7663669 67.7289305,42.0080631 C67.7289305,46.6362058 66.5718955,50.9257065 64.2578228,54.8765599 C61.9437502,58.8274133 58.8112871,61.9598763 54.8604337,64.273949 C50.9095803,66.5880216 46.6200796,67.7450567 41.9919369,67.7450567 C37.3637942,67.7450567 33.0742935,66.5880216 29.1234401,64.273949 C25.1725867,61.9598763 22.0401237,58.8274133 19.726051,54.8765599 C17.4119784,50.9257065 16.2549433,46.6362058 16.2549433,42.0080631 C16.2549433,37.3799204 17.4119784,33.0904197 19.726051,29.1395663 C22.0401237,25.1887129 25.1725867,22.0562498 29.1234401,19.7421772 C33.0742935,17.4281045 37.3637942,16.2710695 41.9919369,16.2710695 C43.2336331,16.2710695 44.7010941,16.4403918 46.3943174,16.7790365 L48.256863,22.3666732 L45.7170281,24.9065081 C44.4753319,24.5678635 43.2336331,24.3985412 41.9919369,24.3985412 Z M81.9520059,29.3088886 C83.3065845,33.4855069 83.9838738,37.718565 83.9838738,42.0080631 C83.9838738,49.5711279 82.093107,56.5697831 78.3115759,63.0040315 C74.5300448,69.4382799 69.4221538,74.546171 62.9879054,78.3277021 C56.553657,82.1092332 49.5550017,84 41.9919369,84 C34.4288721,84 27.4302169,82.1092332 20.9959685,78.3277021 C14.5617201,74.546171 9.45382902,69.4382799 5.67229793,63.0040315 C1.89076684,56.5697831 0,49.5711279 0,42.0080631 C0,34.4449983 1.89076684,27.446343 5.67229793,21.0120946 C9.45382902,14.5778462 14.5617201,9.4699552 20.9959685,5.68842411 C27.4302169,1.90689302 34.4288721,0.0161261813 41.9919369,0.0161261813 C46.281435,0.0161261813 50.5144931,0.693415486 54.6911114,2.0479941 L48.5955076,7.97427551 L48.0875407,8.65156482 C45.9427903,8.31292017 43.9109224,8.14359784 41.9919369,8.14359784 C35.8963332,8.14359784 30.2522565,9.66749878 25.0597043,12.7153006 C19.8671521,15.7631025 15.7469763,19.8832783 12.6991745,25.0758305 C9.6513726,30.2683827 8.12747166,35.9124593 8.12747166,42.0080631 C8.12747166,48.1036668 9.6513726,53.7477435 12.6991745,58.9402957 C15.7469763,64.1328479 19.8671521,68.2530237 25.0597043,71.3008255 C30.2522565,74.3486274 35.8963332,75.8725283 41.9919369,75.8725283 C48.0875407,75.8725283 53.7316173,74.3486274 58.9241695,71.3008255 C64.1167217,68.2530237 68.2368975,64.1328479 71.2846994,58.9402957 C74.3325012,53.7477435 75.8564022,48.1036668 75.8564022,42.0080631 C75.8564022,40.0890776 75.6870798,38.0572097 75.3484352,35.9124593 L76.0257245,35.4044924 L81.9520059,29.3088886 Z" id="Shape"></path>
            </g>
        </g>
    </g>
</svg>