<svg width="199" height="160" viewBox="0 0 199 160" fill="none" xmlns="http://www.w3.org/2000/svg">
<g filter="url(#filter0_d_21_1494)">
<path d="M119.528 47.8418L139.249 48.5109C150.289 48.8854 158.934 58.1382 158.56 69.1775L157.882 89.166C157.507 100.205 148.254 108.851 137.215 108.476L117.494 107.807L119.528 47.8418Z" fill="#373455"/>
<path d="M118.875 59.2021L143.425 60.035C146.736 60.1474 149.33 62.9232 149.218 66.235L148.353 91.7203C148.241 95.0322 145.465 97.6258 142.153 97.5135L117.604 96.6806L118.875 59.2021Z" fill="#242340"/>
<path d="M20 31C20 28.2386 22.2386 26 25 26H115C117.761 26 120 28.2386 120 31V106C120 117.046 111.046 126 100 126H40C28.9543 126 20 117.046 20 106V31Z" fill="#14103B"/>
<path d="M20 31C20 28.2386 22.2386 26 25 26H115C117.761 26 120 28.2386 120 31V106C120 117.046 111.046 126 100 126H40C28.9543 126 20 117.046 20 106V31Z" fill="white" fill-opacity="0.02"/>
</g>
<defs>
<filter id="filter0_d_21_1494" x="0" y="0" width="198.572" height="160" filterUnits="userSpaceOnUse" color-interpolation-filters="sRGB">
<feFlood flood-opacity="0" result="BackgroundImageFix"/>
<feColorMatrix in="SourceAlpha" type="matrix" values="0 0 0 0 0 0 0 0 0 0 0 0 0 0 0 0 0 0 127 0" result="hardAlpha"/>
<feOffset dx="10" dy="4"/>
<feGaussianBlur stdDeviation="15"/>
<feComposite in2="hardAlpha" operator="out"/>
<feColorMatrix type="matrix" values="0 0 0 0 0 0 0 0 0 0 0 0 0 0 0 0 0 0 0.25 0"/>
<feBlend mode="normal" in2="BackgroundImageFix" result="effect1_dropShadow_21_1494"/>
<feBlend mode="normal" in="SourceGraphic" in2="effect1_dropShadow_21_1494" result="shape"/>
</filter>
</defs>
</svg>
