<svg width="148" height="148" viewBox="0 0 148 148" fill="none" xmlns="http://www.w3.org/2000/svg">
<path fill-rule="evenodd" clip-rule="evenodd" d="M74 74C76.1441 65.9981 84.3694 61.2493 92.3712 63.3934C100.373 65.5375 105.122 73.7627 102.978 81.7646C100.834 89.7664 92.6085 94.5153 84.6066 92.3712C76.6048 90.2271 71.8559 82.0018 74 74Z" fill="#1ABCFE"/>
<path fill-rule="evenodd" clip-rule="evenodd" d="M37.2576 95.2132C39.4017 87.2113 47.6268 82.4625 55.6288 84.6066L70.1177 88.4889L66.2354 102.978C64.0913 110.98 55.8661 115.728 47.8642 113.584C39.8622 111.44 35.1135 103.215 37.2576 95.2132Z" fill="#0ACF83"/>
<path fill-rule="evenodd" clip-rule="evenodd" d="M85.6469 30.5333L77.8823 59.5111L92.3712 63.3934C100.373 65.5375 108.598 60.7886 110.742 52.7868C112.886 44.7848 108.138 36.5597 100.136 34.4156L85.6469 30.5333Z" fill="#FF7262"/>
<path fill-rule="evenodd" clip-rule="evenodd" d="M52.7868 37.2576C50.6427 45.2595 55.3914 53.4847 63.3934 55.6288L77.8823 59.5111L85.6468 30.5333L71.158 26.651C63.156 24.5069 54.9309 29.2556 52.7868 37.2576Z" fill="#F24E1E"/>
<path fill-rule="evenodd" clip-rule="evenodd" d="M45.0223 66.2354C42.8782 74.2373 47.6269 82.4625 55.6289 84.6066L70.1177 88.4889L77.8823 59.5111L63.3934 55.6288C55.3914 53.4847 47.1663 58.2336 45.0223 66.2354Z" fill="#A259FF"/>
</svg>
