<svg width="148" height="148" viewBox="0 0 148 148" fill="none" xmlns="http://www.w3.org/2000/svg">
<g clip-path="url(#clip0_19_152)">
<path d="M61.059 25.7038C49.5464 28.7421 39.4958 35.7892 32.7157 45.5771C25.9356 55.365 22.871 67.2512 24.0733 79.0972C25.2755 90.9432 30.6657 101.971 39.2741 110.197C47.8825 118.423 59.1439 123.308 71.0323 123.971C73.5506 123.71 73.9222 122.006 73.5728 120.702L71.3857 112.54C58.7841 119.022 53.4629 110.561 53.4629 110.561C51.7572 107.803 49.1126 105.755 46.016 104.792C40.8187 102.975 45.5776 101.804 45.5776 101.804C47.1462 101.594 48.742 101.741 50.2456 102.234C51.7493 102.728 53.122 103.555 54.2611 104.653C56.2418 106.679 58.9423 107.841 61.7753 107.887C64.6083 107.932 67.3446 106.858 69.3894 104.896C68.9534 102.389 69.4168 99.8081 70.698 97.6092C60.0778 99.316 47.4704 98.2425 42.5399 79.8416C41.108 75.0564 41.5819 69.9029 43.8625 65.4592C41.2784 61.697 40.2291 57.0898 40.9291 52.5796C40.9291 52.5796 44.6366 50.1885 55.5047 53.8504C62.844 49.6051 71.1741 47.3731 79.6528 47.38C87.208 38.678 91.6402 38.9916 91.6402 38.9916C94.5015 42.5475 95.8964 47.0622 95.5396 51.6124C99.7365 54.3205 102.724 58.5466 103.876 63.4066C108.82 81.8558 98.6053 88.9408 88.1588 93.0341C89.6311 93.8892 90.9037 95.0491 91.8913 96.436C92.879 97.823 93.5588 99.4049 93.8853 101.076L97.4311 114.309C97.7805 115.613 98.9674 116.952 101.314 115.857C111.26 109.35 118.562 99.5129 121.912 88.1097C125.262 76.7064 124.441 64.4827 119.595 53.6302C114.749 42.7778 106.196 34.0064 95.4692 28.8888C84.7422 23.7712 72.5431 22.642 61.059 25.7038Z" fill="white"/>
</g>
<defs>
<clipPath id="clip0_19_152">
<rect width="120" height="120" fill="white" transform="translate(0.51532 31.5737) rotate(-15)"/>
</clipPath>
</defs>
</svg>
