<svg width="169" height="227" viewBox="0 0 169 227" fill="none" xmlns="http://www.w3.org/2000/svg">
<path fill-rule="evenodd" clip-rule="evenodd" d="M21.1153 113.786C24.7577 113.786 28.1318 114.802 31.1106 116.468L52.8659 79.8611L47.5577 75.047L69.8494 50.4399L84.0659 75.9223L68.0424 93.6258L62.9883 89.0376L40.3012 126.591C41.3741 129.174 42.0094 131.998 42.0094 134.976C42.0094 140.256 40.033 145.028 36.8706 148.741L54.2212 204.209C63.68 200.991 73.76 199.113 84.3906 199.113C122.791 199.113 155.515 193.819 168.729 226.162H0.0800171C7.76001 207.386 22.1318 220.191 40.2165 210.407L23.4165 155.927C22.6682 156.012 21.9483 156.167 21.1577 156.167C18.193 156.167 15.3835 155.518 12.8282 154.388C8.5506 152.496 5.09177 149.165 2.88942 145.042C1.26588 142.049 0.263535 138.661 0.263535 135.005C0.235306 123.273 9.59531 113.786 21.1153 113.786Z" fill="#0F0C2F"/>
<path fill-rule="evenodd" clip-rule="evenodd" d="M68.9459 28.7554L94.1741 0.873047L168.052 32.9907L108.179 99.1177L68.9459 28.7554Z" fill="#0F0C2F"/>
<path fill-rule="evenodd" clip-rule="evenodd" d="M148.852 76.1481C134.748 91.734 122.282 82.7834 122.282 82.7834L153.031 48.8022C153.031 48.8022 162.998 60.5622 148.852 76.1481Z" fill="#E8F812"/>
</svg>
