<svg width="420" height="230" viewBox="0 0 420 230" fill="none" xmlns="http://www.w3.org/2000/svg">
<g filter="url(#filter0_d_21_1475)">
<path d="M44 17C44 11.4772 48.4772 7 54 7H354C359.523 7 364 11.4772 364 17V197C364 202.523 359.523 207 354 207H54C48.4772 207 44 202.523 44 197V17Z" fill="#141133"/>
<path d="M44 17C44 11.4772 48.4772 7 54 7H354C359.523 7 364 11.4772 364 17V197C364 202.523 359.523 207 354 207H54C48.4772 207 44 202.523 44 197V17Z" stroke="#373455" stroke-width="13"/>
</g>
<path d="M0 220C0 214.477 4.47715 210 10 210H410C415.523 210 420 214.477 420 220C420 225.523 415.523 230 410 230H10C4.47716 230 0 225.523 0 220Z" fill="#17102D"/>
<rect x="76" y="58" width="242" height="6.5" fill="#61606B"/>
<rect x="76" y="157" width="260" height="7" fill="#61606B"/>
<rect x="90" y="99" width="190" height="6" fill="#61606B"/>
<rect x="76" y="117" width="150" height="6" fill="#61606B"/>
<rect x="99" y="135" width="200" height="7" fill="#61606B"/>
<rect x="93" y="79" width="106" height="6" fill="#61606B"/>
<rect x="76" y="35" width="110" height="6" fill="#61606B"/>
<defs>
<filter id="filter0_d_21_1475" x="33.5" y="0.5" width="341" height="221" filterUnits="userSpaceOnUse" color-interpolation-filters="sRGB">
<feFlood flood-opacity="0" result="BackgroundImageFix"/>
<feColorMatrix in="SourceAlpha" type="matrix" values="0 0 0 0 0 0 0 0 0 0 0 0 0 0 0 0 0 0 127 0" result="hardAlpha"/>
<feOffset dy="4"/>
<feGaussianBlur stdDeviation="2"/>
<feComposite in2="hardAlpha" operator="out"/>
<feColorMatrix type="matrix" values="0 0 0 0 0 0 0 0 0 0 0 0 0 0 0 0 0 0 0.25 0"/>
<feBlend mode="normal" in2="BackgroundImageFix" result="effect1_dropShadow_21_1475"/>
<feBlend mode="normal" in="SourceGraphic" in2="effect1_dropShadow_21_1475" result="shape"/>
</filter>
</defs>
</svg>
