<svg width="148" height="148" viewBox="0 0 148 148" fill="none" xmlns="http://www.w3.org/2000/svg">
<g clip-path="url(#clip0_19_147)">
<path d="M83.6802 71.3127C82.288 66.1169 76.8151 63.0683 71.4556 64.5044C66.0969 65.9402 62.8808 71.3171 64.273 76.5128C65.6654 81.7092 71.139 84.7573 76.4977 83.3214C81.8571 81.8854 85.0726 76.5091 83.6802 71.3127Z" fill="#53C1DE"/>
<path fill-rule="evenodd" clip-rule="evenodd" d="M100.811 48.0013C100.697 39.3786 99.261 23.7167 88.8207 21.0738C78.4287 18.4418 69.2626 31.277 64.6098 38.7538C56.8756 34.6582 42.2005 28.2555 34.4925 35.7785C26.8169 43.2699 33.548 57.2469 37.8195 64.81C30.0139 69.3889 16.9068 78.2585 19.6433 88.4713C22.3721 98.6552 38.2608 100.227 47.2596 100.301C47.3462 109.033 48.5885 124.255 58.99 126.891C69.4605 129.542 78.992 116.899 83.6853 109.343C91.5021 113.516 105.689 119.869 113.369 112.373C121.073 104.854 114.754 90.7158 110.469 83.1057C117.968 78.6061 131.005 69.4109 128.31 59.3542C125.6 49.2395 109.725 48.0919 100.811 48.0013ZM108.044 79.1142C105.538 75.2614 102.479 71.2698 98.9655 67.2411C99.9198 62.1325 100.517 57.2233 100.73 52.6709C107.269 52.751 121.655 53.0833 123.668 60.598C125.701 68.1833 113.957 75.5567 108.044 79.1142ZM109.999 109.101C104.269 114.694 91.8222 108.318 86.0527 105.249C88.2448 101.181 90.2933 96.5859 92.1566 91.5936C97.2892 89.7342 102.054 87.6655 106.285 85.4507C109.308 90.8356 115.755 103.484 109.999 109.101ZM60.2646 122.37C52.5089 120.406 52.1217 106.629 52.056 100.197C56.7627 99.9593 61.8739 99.3258 67.2508 98.3288C71.356 101.625 75.515 104.552 79.5729 107.004C76.6378 111.731 68.0564 124.342 60.2646 122.37ZM24.2851 87.2275C22.2451 79.614 34.4653 72.1828 40.2277 68.8114C42.7368 72.7353 45.722 76.7413 49.0896 80.6988C48.1421 85.8848 47.5534 90.9245 47.3435 95.6313C40.9723 95.5744 26.3264 94.8458 24.2851 87.2275ZM37.8619 39.0507C43.6163 33.4348 56.6055 39.8762 62.2179 42.8381C59.9418 46.9708 57.8247 51.5488 55.9371 56.4256C50.9495 58.2543 46.2548 60.3027 42.022 62.4959C38.5789 56.3955 32.1138 44.6605 37.8619 39.0507ZM85.5701 53.7289C89.1509 53.224 92.6241 52.8982 95.9282 52.7529C95.7716 55.9139 95.4199 59.2696 94.8811 62.7574C91.9063 59.6256 88.8048 56.6066 85.5701 53.7289ZM66.3339 45.1826C69.0776 46.8578 71.8949 48.7946 74.7345 50.954C70.403 51.9042 66.117 53.0519 61.8901 54.3926C63.2782 51.1275 64.7691 48.0403 66.3339 45.1826ZM50.3341 74.6902C48.1493 71.9439 46.1738 69.1974 44.4383 66.4987C47.3585 64.9953 50.5176 63.5595 53.8506 62.2192C52.4795 66.3229 51.3063 70.4857 50.3341 74.6902ZM62.5787 94.3975C58.9171 94.9659 55.4207 95.3433 52.1459 95.5197C52.3006 92.2591 52.646 88.82 53.1758 85.2744C56.1572 88.4607 59.2966 91.5053 62.5787 94.3975ZM81.9367 102.899C79.1198 101.186 76.2429 99.2283 73.3658 97.0642C77.7129 96.0749 82.0245 94.92 86.2775 93.5808C84.9085 96.9362 83.455 100.058 81.9367 102.899ZM97.7175 73.1663C100.03 75.9871 102.087 78.7644 103.85 81.4567C100.886 82.9982 97.635 84.4711 94.1625 85.8484C95.5243 81.668 96.7198 77.4379 97.7175 73.1663ZM88.4102 87.9744C81.9501 90.1942 75.3255 91.9638 68.6302 93.3145C63.469 89.018 58.6451 84.3377 54.22 79.3226C55.5342 72.7825 57.3502 66.3346 59.6563 60.0463C66.1161 57.7979 72.7454 56.02 79.4652 54.7416C84.5744 59.0426 89.3622 63.7055 93.8227 68.6424C92.4762 75.188 90.6457 81.6518 88.4102 87.9744ZM87.5469 25.5942C95.3367 27.5676 95.9266 41.8311 96.0143 48.0788C91.2358 48.278 86.1389 48.8393 80.8885 49.7461C76.7977 46.4239 72.6996 43.5044 68.7246 41.0922C72.1376 35.6157 79.8326 23.6403 87.5469 25.5942Z" fill="#53C1DE"/>
</g>
<defs>
<clipPath id="clip0_19_147">
<rect width="120" height="120" fill="white" transform="translate(0.51532 31.5736) rotate(-15)"/>
</clipPath>
</defs>
</svg>
