<svg width="1249" height="764" viewBox="0 0 1249 764" fill="none" xmlns="http://www.w3.org/2000/svg">
<g opacity="0.3">
<path d="M19.5187 135.455L17.7823 145.303M27.4774 106.395L25.741 116.243M24.149 141.348L13.152 139.409M32.1077 112.289L21.1107 110.35M46.7222 109.789L49.6117 121.58C49.9215 122.845 50.0765 123.477 50.3849 124.041C50.6581 124.541 51.019 125.001 51.4533 125.401C51.9429 125.852 52.5573 126.199 53.7854 126.893L65.2433 133.363L52.2636 135.524C50.8723 135.755 50.1763 135.871 49.5618 136.128C49.0168 136.356 48.5205 136.664 48.0927 137.041C47.6099 137.465 47.248 138.007 46.5246 139.088L39.7763 149.181L36.8868 137.389C36.577 136.125 36.4221 135.493 36.1136 134.929C35.8404 134.428 35.4795 133.969 35.0452 133.569C34.5556 133.117 33.9413 132.77 32.713 132.077L21.2552 125.607L34.2348 123.446C35.6263 123.214 36.3222 123.098 36.9367 122.841C37.4817 122.614 37.978 122.305 38.4058 121.929C38.8887 121.504 39.2505 120.963 39.9739 119.881L46.7222 109.789Z" stroke="white" stroke-width="2" stroke-linecap="round" stroke-linejoin="round"/>
</g>
<g style="mix-blend-mode:screen" opacity="0.2">
<path d="M1185.06 747.442L1186.36 754.828M1183.12 724.937L1184.42 732.323M1189.65 750.441L1181.77 751.83M1187.71 727.935L1179.83 729.324M1196.91 722.506L1201.81 730.103C1202.33 730.918 1202.59 731.325 1202.94 731.646C1203.25 731.931 1203.61 732.164 1204 732.338C1204.45 732.534 1204.95 732.625 1205.94 732.806L1215.27 734.499L1207.09 739.279C1206.21 739.792 1205.77 740.048 1205.42 740.384C1205.11 740.681 1204.86 741.023 1204.66 741.396C1204.44 741.817 1204.34 742.289 1204.12 743.234L1202.12 752.05L1197.22 744.452C1196.69 743.637 1196.43 743.23 1196.08 742.909C1195.77 742.625 1195.41 742.391 1195.02 742.217C1194.58 742.021 1194.08 741.931 1193.08 741.749L1183.76 740.056L1191.94 735.276C1192.82 734.764 1193.25 734.507 1193.6 734.172C1193.91 733.874 1194.17 733.532 1194.36 733.159C1194.58 732.738 1194.69 732.266 1194.9 731.321L1196.91 722.506Z" stroke="white" stroke-width="2" stroke-linecap="round" stroke-linejoin="round"/>
</g>
<g opacity="0.2" clip-path="url(#clip0_21_1388)" filter="url(#filter0_d_21_1388)">
<path d="M1218.63 443.92C1220.19 440.517 1220.97 438.815 1222.47 438.605C1223.96 438.395 1225.18 439.815 1227.62 442.657L1228.25 443.392C1228.94 444.2 1229.29 444.604 1229.77 444.834C1230.26 445.065 1230.82 445.096 1231.96 445.158L1232.99 445.215C1236.98 445.434 1238.97 445.544 1239.62 446.772C1240.26 448 1239.13 449.533 1236.86 452.6L1236.27 453.393C1235.63 454.265 1235.3 454.7 1235.2 455.198C1235.1 455.695 1235.23 456.198 1235.49 457.204L1235.72 458.119C1236.62 461.659 1237.08 463.428 1235.98 464.397C1234.88 465.366 1232.96 464.893 1229.13 463.947L1228.13 463.702C1227.04 463.433 1226.5 463.298 1225.95 463.375C1225.4 463.452 1224.91 463.732 1223.94 464.291L1223.05 464.8C1219.62 466.768 1217.91 467.752 1216.58 467.123C1215.26 466.494 1215.21 464.668 1215.11 461.016L1215.08 460.072C1215.05 459.034 1215.03 458.515 1214.8 458.066C1214.56 457.616 1214.13 457.286 1213.27 456.625L1212.49 456.025C1209.46 453.702 1207.95 452.54 1208.23 451.183C1208.51 449.825 1210.4 449.169 1214.17 447.859L1215.15 447.52C1216.22 447.148 1216.76 446.961 1217.16 446.606C1217.56 446.251 1217.78 445.768 1218.23 444.801L1218.63 443.92Z" stroke="white" stroke-width="1.5"/>
<path opacity="0.55" d="M1207.84 435.714C1207.84 435.714 1208.71 437.996 1210.02 438.845C1211.34 439.694 1214.11 439.762 1214.11 439.762C1214.11 439.762 1211.47 440.608 1210.45 441.793C1209.43 442.977 1209.24 445.409 1209.24 445.409C1209.24 445.409 1208.38 443.128 1207.06 442.279C1205.75 441.43 1202.97 441.361 1202.97 441.361C1202.97 441.361 1205.61 440.515 1206.63 439.331C1207.66 438.146 1207.84 435.714 1207.84 435.714Z" stroke="white" stroke-linejoin="round"/>
<path opacity="0.55" d="M1232.68 437.169L1236.39 436.647M1234.76 438.525L1234.31 435.291" stroke="white" stroke-width="1.5" stroke-linecap="round"/>
</g>
<g style="mix-blend-mode:overlay" clip-path="url(#clip1_21_1388)">
<path d="M643.15 9.62794C645.169 6.47462 646.178 4.89795 647.687 4.89795C649.196 4.89795 650.206 6.47462 652.225 9.62794L652.747 10.4437C653.321 11.3398 653.607 11.7879 654.055 12.0835C654.502 12.3791 655.059 12.4888 656.173 12.7083L657.187 12.9081C661.107 13.6805 663.067 14.0666 663.533 15.3724C664 16.678 662.663 18.0387 659.991 20.7598L659.3 21.4638C658.54 22.2372 658.16 22.6238 657.99 23.1022C657.819 23.5804 657.876 24.0963 657.991 25.128L658.096 26.0672C658.5 29.6979 658.702 31.5133 657.481 32.3203C656.26 33.1273 654.425 32.3915 650.754 30.92L649.805 30.5392C648.762 30.1211 648.24 29.912 647.687 29.912C647.135 29.912 646.613 30.1211 645.57 30.5392L644.621 30.92C640.95 32.3915 639.115 33.1273 637.894 32.3203C636.673 31.5133 636.875 29.6979 637.279 26.0672L637.384 25.128C637.499 24.0963 637.556 23.5804 637.385 23.1022C637.214 22.6238 636.835 22.2372 636.075 21.4638L635.384 20.7598C632.711 18.0387 631.375 16.678 631.842 15.3724C632.308 14.0666 634.268 13.6805 638.188 12.9081L639.202 12.7083C640.316 12.4888 640.873 12.3791 641.32 12.0835C641.768 11.7879 642.054 11.3398 642.628 10.4437L643.15 9.62794Z" stroke="white" stroke-width="1.5"/>
<path opacity="0.55" d="M633.606 0C633.606 0 634.146 2.37993 635.33 3.40367C636.513 4.42741 639.25 4.88142 639.25 4.88142C639.25 4.88142 636.517 5.35151 635.341 6.38218C634.165 7.41284 633.644 9.79591 633.644 9.79591C633.644 9.79591 633.104 7.41598 631.92 6.39224C630.737 5.3685 628 4.9145 628 4.9145C628 4.9145 630.733 4.44441 631.909 3.41373C633.085 2.38307 633.606 0 633.606 0Z" stroke="white" stroke-linejoin="round"/>
<path opacity="0.55" d="M658 4.89779H661.75M659.875 6.53044V3.26514" stroke="white" stroke-width="1.5" stroke-linecap="round"/>
</g>
<g opacity="0.25" clip-path="url(#clip2_21_1388)" filter="url(#filter1_d_21_1388)">
<path d="M152.22 642.274C153.538 638.77 154.198 637.018 155.674 636.704C157.15 636.391 158.465 637.723 161.095 640.388L161.776 641.077C162.523 641.834 162.897 642.213 163.396 642.409C163.895 642.605 164.463 642.597 165.598 642.58L166.631 642.565C170.626 642.505 172.624 642.475 173.352 643.655C174.079 644.836 173.055 646.444 171.007 649.662L170.477 650.494C169.895 651.408 169.604 651.866 169.536 652.369C169.468 652.872 169.632 653.365 169.959 654.35L170.256 655.247C171.406 658.715 171.981 660.448 170.955 661.491C169.928 662.535 167.98 662.196 164.084 661.52L163.076 661.345C161.969 661.153 161.415 661.057 160.875 661.172C160.334 661.287 159.867 661.6 158.934 662.226L158.084 662.796C154.8 664.998 153.158 666.099 151.796 665.564C150.434 665.028 150.254 663.211 149.895 659.575L149.802 658.635C149.699 657.602 149.648 657.085 149.382 656.653C149.115 656.22 148.663 655.921 147.76 655.323L146.937 654.778C143.757 652.672 142.167 651.619 142.352 650.245C142.537 648.87 144.374 648.085 148.048 646.515L148.998 646.108C150.042 645.662 150.564 645.439 150.94 645.057C151.316 644.675 151.503 644.177 151.878 643.181L152.22 642.274Z" stroke="white" stroke-width="1.5"/>
<path opacity="0.55" d="M140.882 634.841C140.882 634.841 141.905 637.057 143.275 637.812C144.646 638.568 147.418 638.443 147.418 638.443C147.418 638.443 144.842 639.471 143.906 640.723C142.97 641.976 142.956 644.415 142.956 644.415C142.956 644.415 141.933 642.2 140.562 641.444C139.192 640.689 136.42 640.814 136.42 640.814C136.42 640.814 138.996 639.786 139.932 638.533C140.867 637.281 140.882 634.841 140.882 634.841Z" stroke="white" stroke-linejoin="round"/>
<path opacity="0.55" d="M165.761 634.56L169.429 633.781M167.935 635.767L167.256 632.574" stroke="white" stroke-width="1.5" stroke-linecap="round"/>
</g>
<g style="mix-blend-mode:overlay" clip-path="url(#clip3_21_1388)">
<path d="M1215.27 199.256C1209.35 200.875 1207.67 202.735 1206.98 208.423C1205.31 202.941 1203.34 201.401 1197.22 200.835C1203.14 199.216 1204.83 197.356 1205.51 191.668C1207.18 197.15 1209.16 198.69 1215.27 199.256Z" stroke="white" stroke-opacity="0.56" stroke-width="2" stroke-miterlimit="10" stroke-linecap="round" stroke-linejoin="round"/>
<path d="M1221.97 217.143C1217.85 218.238 1216.78 219.555 1216.21 223.52C1215.08 219.703 1213.68 218.725 1209.42 218.241C1213.54 217.147 1214.61 215.83 1215.19 211.864C1216.31 215.681 1217.72 216.781 1221.97 217.143Z" stroke="white" stroke-opacity="0.56" stroke-width="2" stroke-miterlimit="10" stroke-linecap="round" stroke-linejoin="round"/>
<path d="M1230.32 204.178C1226.98 205.083 1226.02 206.146 1225.64 209.359C1224.71 206.26 1223.58 205.38 1220.13 205.07C1223.47 204.166 1224.43 203.103 1224.81 199.889C1225.74 202.989 1226.87 203.869 1230.32 204.178Z" stroke="white" stroke-opacity="0.56" stroke-width="2" stroke-miterlimit="10" stroke-linecap="round" stroke-linejoin="round"/>
<ellipse cx="1199.79" cy="216.637" rx="1.3125" ry="1.21875" transform="rotate(-5 1199.79 216.637)" fill="white" fill-opacity="0.56"/>
<ellipse cx="1228.06" cy="193.366" rx="1.3125" ry="1.21875" transform="rotate(-5 1228.06 193.366)" fill="white" fill-opacity="0.56"/>
</g>
<g style="mix-blend-mode:overlay">
<path d="M23.4937 485.066C17.4562 486.162 15.6187 487.869 14.4375 493.475C13.2562 487.869 11.4187 486.162 5.38125 485.066C11.4187 483.969 13.2562 482.262 14.4375 476.656C15.6187 482.262 17.4562 483.969 23.4937 485.066Z" stroke="white" stroke-opacity="0.56" stroke-width="2" stroke-miterlimit="10" stroke-linecap="round" stroke-linejoin="round"/>
<path d="M28.6125 503.469C24.4125 504.2 23.2312 505.419 22.3125 509.319C21.525 505.419 20.2125 504.322 16.0125 503.469C20.2125 502.737 21.3937 501.519 22.3125 497.619C23.1 501.519 24.4125 502.737 28.6125 503.469Z" stroke="white" stroke-opacity="0.56" stroke-width="2" stroke-miterlimit="10" stroke-linecap="round" stroke-linejoin="round"/>
<path d="M38.0625 491.281C34.65 491.891 33.6 492.866 32.9438 496.035C32.2875 492.866 31.2375 491.891 27.825 491.281C31.2375 490.672 32.2875 489.697 32.9438 486.528C33.6 489.697 34.65 490.672 38.0625 491.281Z" stroke="white" stroke-opacity="0.56" stroke-width="2" stroke-miterlimit="10" stroke-linecap="round" stroke-linejoin="round"/>
<ellipse cx="6.5625" cy="501.031" rx="1.3125" ry="1.21875" fill="white" fill-opacity="0.56"/>
<ellipse cx="36.75" cy="480.312" rx="1.3125" ry="1.21875" fill="white" fill-opacity="0.56"/>
</g>
<g style="mix-blend-mode:overlay" clip-path="url(#clip4_21_1388)">
<path d="M376.747 253.611C370.611 253.643 368.505 255.004 366.368 260.32C366.178 254.594 364.665 252.595 358.909 250.466C365.046 250.434 367.152 249.073 369.288 243.757C369.478 249.483 370.992 251.483 376.747 253.611Z" stroke="white" stroke-opacity="0.56" stroke-width="2" stroke-miterlimit="10" stroke-linecap="round" stroke-linejoin="round"/>
<path d="M378.592 272.623C374.329 272.614 372.954 273.609 371.372 277.291C371.274 273.313 370.172 272.005 366.184 270.435C370.447 270.445 371.822 269.45 373.404 265.768C373.502 269.746 374.583 271.174 378.592 272.623Z" stroke="white" stroke-opacity="0.56" stroke-width="2" stroke-miterlimit="10" stroke-linecap="round" stroke-linejoin="round"/>
<path d="M390.015 262.262C386.548 262.27 385.345 263.048 384.149 266.054C384.053 262.82 383.188 261.677 379.933 260.485C383.399 260.477 384.603 259.699 385.799 256.693C385.895 259.927 386.76 261.07 390.015 262.262Z" stroke="white" stroke-opacity="0.56" stroke-width="2" stroke-miterlimit="10" stroke-linecap="round" stroke-linejoin="round"/>
<ellipse cx="357.3" cy="266.394" rx="1.3125" ry="1.21875" transform="rotate(10 357.3 266.394)" fill="white" fill-opacity="0.56"/>
<ellipse cx="390.627" cy="251.232" rx="1.3125" ry="1.21875" transform="rotate(10 390.627 251.232)" fill="white" fill-opacity="0.56"/>
</g>
<g opacity="0.1" clip-path="url(#clip5_21_1388)" filter="url(#filter2_f_21_1388)">
<path d="M587.553 391.418L579.336 390.245L575.661 382.932C575.344 382.302 574.703 381.91 573.987 381.91C573.272 381.91 572.63 382.302 572.314 382.932L568.639 390.245L560.421 391.418C559.713 391.519 559.136 391.997 558.915 392.665C558.694 393.334 558.875 394.054 559.387 394.544L565.334 400.237L563.93 408.275C563.809 408.968 564.093 409.655 564.672 410.068C564.999 410.301 565.382 410.42 565.767 410.42C566.064 410.42 566.362 410.349 566.637 410.207L573.987 406.412L581.336 410.207C581.603 410.345 581.904 410.418 582.205 410.418C582.602 410.418 582.981 410.297 583.302 410.068C583.881 409.655 584.166 408.968 584.045 408.275L583.429 404.746C583.346 404.271 582.887 403.952 582.403 404.033C581.919 404.115 581.594 404.566 581.677 405.041L582.294 408.57C582.299 408.603 582.286 408.636 582.258 408.655C582.217 408.685 582.189 408.675 582.164 408.662L574.401 404.654C574.142 404.52 573.833 404.52 573.574 404.654L565.81 408.662C565.781 408.677 565.744 408.675 565.717 408.655C565.689 408.636 565.676 408.602 565.681 408.57L567.164 400.08C567.214 399.797 567.118 399.508 566.909 399.307L560.628 393.294C560.604 393.271 560.595 393.236 560.605 393.204C560.616 393.173 560.644 393.15 560.677 393.145L569.357 391.907C569.646 391.865 569.896 391.687 570.026 391.429L573.908 383.704C573.937 383.645 574.037 383.645 574.067 383.704L577.949 391.429C578.078 391.687 578.329 391.865 578.618 391.906L587.298 393.145C587.332 393.15 587.359 393.173 587.37 393.205C587.38 393.237 587.372 393.271 587.347 393.294L581.066 399.307C580.857 399.508 580.761 399.797 580.811 400.08L581.191 402.256C581.274 402.731 581.732 403.05 582.217 402.968C582.701 402.887 583.025 402.436 582.942 401.961L582.641 400.237L588.588 394.544C589.1 394.054 589.281 393.334 589.06 392.665C588.838 391.997 588.261 391.519 587.553 391.418Z" fill="white"/>
<path d="M555.292 378.775L554.714 382.084C554.629 382.574 554.83 383.06 555.24 383.353C555.467 383.516 555.736 383.601 556.017 383.601C556.23 383.601 556.443 383.55 556.632 383.452L559.658 381.89L562.684 383.452C562.873 383.55 563.086 383.601 563.299 383.601C563.579 383.601 563.848 383.515 564.076 383.353C564.485 383.06 564.687 382.574 564.601 382.084L564.023 378.775L566.471 376.431C566.834 376.083 566.962 375.574 566.806 375.101C566.649 374.627 566.24 374.288 565.739 374.217L562.356 373.734L560.843 370.724C560.619 370.277 560.165 370 559.658 370C559.151 370 558.697 370.277 558.473 370.723L556.96 373.734L553.577 374.217C553.075 374.288 552.666 374.627 552.51 375.101C552.353 375.574 552.481 376.083 552.844 376.431L555.292 378.775ZM557.677 375.395C557.967 375.354 558.217 375.176 558.346 374.918L559.658 372.309L560.969 374.918C561.099 375.176 561.349 375.354 561.638 375.395L564.57 375.814L562.448 377.845C562.239 378.045 562.143 378.334 562.193 378.617L562.694 381.486L560.071 380.131C559.942 380.065 559.8 380.031 559.658 380.031C559.516 380.031 559.374 380.065 559.244 380.131L556.622 381.486L557.123 378.617C557.172 378.334 557.077 378.045 556.867 377.845L554.745 375.814L557.677 375.395Z" fill="white"/>
<path d="M578.575 417.534L576.156 417.189L575.076 415.038C574.873 414.634 574.446 414.373 573.987 414.373C573.522 414.373 573.105 414.627 572.899 415.037L571.818 417.189L569.399 417.534C568.939 417.6 568.564 417.91 568.42 418.345C568.276 418.78 568.394 419.248 568.727 419.566L570.477 421.242L570.064 423.608C569.986 424.058 570.171 424.504 570.547 424.773C570.755 424.922 571.002 425 571.26 425C571.456 425 571.651 424.953 571.824 424.863L573.987 423.746L576.15 424.864C576.549 425.069 577.067 425.031 577.428 424.773C577.803 424.505 577.988 424.059 577.91 423.607L577.497 421.242L579.246 419.567C579.58 419.248 579.698 418.78 579.554 418.345C579.41 417.91 579.035 417.6 578.575 417.534ZM575.922 420.312C575.713 420.513 575.617 420.802 575.667 421.085L575.966 422.796L574.401 421.988C574.271 421.921 574.129 421.887 573.987 421.887C573.845 421.887 573.703 421.921 573.574 421.988L572.009 422.796L572.308 421.085C572.358 420.802 572.262 420.513 572.053 420.312L570.786 419.1L572.536 418.851C572.825 418.809 573.076 418.631 573.205 418.373L573.987 416.816L574.77 418.373C574.899 418.631 575.149 418.809 575.439 418.851L577.188 419.1L575.922 420.312Z" fill="white"/>
<path d="M594.64 398.588C592.587 398.588 590.916 400.228 590.916 402.245C590.916 404.261 592.587 405.902 594.64 405.902C596.693 405.902 598.363 404.261 598.363 402.245C598.363 400.228 596.693 398.588 594.64 398.588ZM594.64 404.157C593.566 404.157 592.693 403.299 592.693 402.245C592.693 401.191 593.566 400.333 594.64 400.333C595.713 400.333 596.586 401.191 596.586 402.245C596.586 403.299 595.713 404.157 594.64 404.157Z" fill="white"/>
<path d="M553.36 403.1C551.307 403.1 549.637 404.74 549.637 406.757C549.637 408.773 551.307 410.414 553.36 410.414C555.413 410.414 557.084 408.773 557.084 406.757C557.084 404.74 555.413 403.1 553.36 403.1ZM553.36 408.668C552.287 408.668 551.414 407.811 551.414 406.757C551.414 405.702 552.287 404.845 553.36 404.845C554.433 404.845 555.306 405.702 555.307 406.757C555.307 407.811 554.434 408.668 553.36 408.668Z" fill="white"/>
<path d="M587.386 382.73C588.479 382.73 589.366 381.859 589.366 380.785C589.366 379.711 588.479 378.841 587.386 378.841C586.292 378.841 585.406 379.711 585.406 380.785C585.406 381.859 586.292 382.73 587.386 382.73Z" fill="white"/>
<path d="M591.805 418.069C592.898 418.069 593.785 417.199 593.785 416.125C593.785 415.051 592.898 414.18 591.805 414.18C590.711 414.18 589.825 415.051 589.825 416.125C589.825 417.199 590.711 418.069 591.805 418.069Z" fill="white"/>
</g>
<g style="mix-blend-mode:overlay" opacity="0.3">
<path d="M620.75 396.667V403.333M622.5 376.667V383.333M624.25 400H617.25M626 380H619M634.75 376.667L637.817 384.074C638.146 384.868 638.311 385.265 638.563 385.6C638.786 385.897 639.058 386.156 639.37 386.369C639.722 386.609 640.139 386.765 640.972 387.079L648.75 390L640.972 392.921C640.139 393.234 639.722 393.391 639.37 393.631C639.058 393.843 638.786 394.103 638.563 394.4C638.311 394.735 638.146 395.132 637.817 395.926L634.75 403.333L631.683 395.926C631.354 395.132 631.189 394.735 630.937 394.4C630.714 394.103 630.442 393.843 630.13 393.631C629.778 393.391 629.361 393.234 628.528 392.921L620.75 390L628.528 387.079C629.361 386.765 629.778 386.609 630.13 386.369C630.442 386.156 630.714 385.897 630.937 385.6C631.189 385.265 631.354 384.868 631.683 384.074L634.75 376.667Z" stroke="white" stroke-width="2" stroke-linecap="round" stroke-linejoin="round"/>
</g>
<g style="mix-blend-mode:overlay" opacity="0.3">
<path d="M176.75 202.667V209.333M178.5 182.667V189.333M180.25 206H173.25M182 186H175M190.75 182.667L193.817 190.074C194.146 190.868 194.311 191.265 194.563 191.6C194.786 191.897 195.058 192.156 195.37 192.369C195.722 192.609 196.139 192.765 196.972 193.079L204.75 196L196.972 198.921C196.139 199.234 195.722 199.391 195.37 199.631C195.058 199.843 194.786 200.103 194.563 200.4C194.311 200.735 194.146 201.132 193.817 201.926L190.75 209.333L187.683 201.926C187.354 201.132 187.189 200.735 186.937 200.4C186.714 200.103 186.442 199.843 186.13 199.631C185.778 199.391 185.361 199.234 184.528 198.921L176.75 196L184.528 193.079C185.361 192.765 185.778 192.609 186.13 192.369C186.442 192.156 186.714 191.897 186.937 191.6C187.189 191.265 187.354 190.868 187.683 190.074L190.75 182.667Z" stroke="white" stroke-width="2" stroke-linecap="round" stroke-linejoin="round"/>
</g>
<g style="mix-blend-mode:overlay" opacity="0.3">
<path d="M422.75 91.6665V98.3332M424.5 71.6665V78.3332M426.25 94.9998H419.25M428 74.9998H421M436.75 71.6665L439.817 79.0738C440.146 79.8679 440.311 80.2649 440.563 80.5997C440.786 80.8965 441.058 81.1564 441.37 81.3689C441.722 81.6087 442.139 81.7653 442.972 82.0785L450.75 84.9998L442.972 87.9212C442.139 88.2343 441.722 88.391 441.37 88.6308C441.058 88.8433 440.786 89.1032 440.563 89.4C440.311 89.7347 440.146 90.1318 439.817 90.9258L436.75 98.3332L433.683 90.9258C433.354 90.1318 433.189 89.7347 432.937 89.4C432.714 89.1032 432.442 88.8433 432.13 88.6308C431.778 88.391 431.361 88.2343 430.528 87.9212L422.75 84.9998L430.528 82.0785C431.361 81.7653 431.778 81.6087 432.13 81.3689C432.442 81.1564 432.714 80.8965 432.937 80.5997C433.189 80.2649 433.354 79.8679 433.683 79.0738L436.75 71.6665Z" stroke="white" stroke-width="2" stroke-linecap="round" stroke-linejoin="round"/>
</g>
<g style="mix-blend-mode:overlay" opacity="0.3">
<path d="M902.75 587.667V594.333M904.5 567.667V574.333M906.25 591H899.25M908 571H901M916.75 567.667L919.817 575.074C920.146 575.868 920.311 576.265 920.563 576.6C920.786 576.897 921.058 577.156 921.37 577.369C921.722 577.609 922.139 577.765 922.972 578.079L930.75 581L922.972 583.921C922.139 584.234 921.722 584.391 921.37 584.631C921.058 584.843 920.786 585.103 920.563 585.4C920.311 585.735 920.146 586.132 919.817 586.926L916.75 594.333L913.683 586.926C913.354 586.132 913.189 585.735 912.937 585.4C912.714 585.103 912.442 584.843 912.13 584.631C911.778 584.391 911.361 584.234 910.528 583.921L902.75 581L910.528 578.079C911.361 577.765 911.778 577.609 912.13 577.369C912.442 577.156 912.714 576.897 912.937 576.6C913.189 576.265 913.354 575.868 913.683 575.074L916.75 567.667Z" stroke="white" stroke-width="2" stroke-linecap="round" stroke-linejoin="round"/>
</g>
<g style="mix-blend-mode:overlay" opacity="0.3">
<path d="M923.75 235.667V242.333M925.5 215.667V222.333M927.25 239H920.25M929 219H922M937.75 215.667L940.817 223.074C941.146 223.868 941.311 224.265 941.563 224.6C941.786 224.897 942.058 225.156 942.37 225.369C942.722 225.609 943.139 225.765 943.972 226.079L951.75 229L943.972 231.921C943.139 232.234 942.722 232.391 942.37 232.631C942.058 232.843 941.786 233.103 941.563 233.4C941.311 233.735 941.146 234.132 940.817 234.926L937.75 242.333L934.683 234.926C934.354 234.132 934.189 233.735 933.937 233.4C933.714 233.103 933.442 232.843 933.13 232.631C932.778 232.391 932.361 232.234 931.528 231.921L923.75 229L931.528 226.079C932.361 225.765 932.778 225.609 933.13 225.369C933.442 225.156 933.714 224.897 933.937 224.6C934.189 224.265 934.354 223.868 934.683 223.074L937.75 215.667Z" stroke="white" stroke-width="2" stroke-linecap="round" stroke-linejoin="round"/>
</g>
<g style="mix-blend-mode:overlay" opacity="0.3">
<path d="M355.75 446.667V453.333M357.5 426.667V433.333M359.25 450H352.25M361 430H354M369.75 426.667L372.817 434.074C373.146 434.868 373.311 435.265 373.563 435.6C373.786 435.897 374.058 436.156 374.37 436.369C374.722 436.609 375.139 436.765 375.972 437.079L383.75 440L375.972 442.921C375.139 443.234 374.722 443.391 374.37 443.631C374.058 443.843 373.786 444.103 373.563 444.4C373.311 444.735 373.146 445.132 372.817 445.926L369.75 453.333L366.683 445.926C366.354 445.132 366.189 444.735 365.937 444.4C365.714 444.103 365.442 443.843 365.13 443.631C364.778 443.391 364.361 443.234 363.528 442.921L355.75 440L363.528 437.079C364.361 436.765 364.778 436.609 365.13 436.369C365.442 436.156 365.714 435.897 365.937 435.6C366.189 435.265 366.354 434.868 366.683 434.074L369.75 426.667Z" stroke="white" stroke-width="2" stroke-linecap="round" stroke-linejoin="round"/>
</g>
<defs>
<filter id="filter0_d_21_1388" x="1194.44" y="427.063" width="58.129" height="53.8735" filterUnits="userSpaceOnUse" color-interpolation-filters="sRGB">
<feFlood flood-opacity="0" result="BackgroundImageFix"/>
<feColorMatrix in="SourceAlpha" type="matrix" values="0 0 0 0 0 0 0 0 0 0 0 0 0 0 0 0 0 0 127 0" result="hardAlpha"/>
<feOffset dy="4"/>
<feGaussianBlur stdDeviation="2"/>
<feComposite in2="hardAlpha" operator="out"/>
<feColorMatrix type="matrix" values="0 0 0 0 0 0 0 0 0 0 0 0 0 0 0 0 0 0 0.25 0"/>
<feBlend mode="normal" in2="BackgroundImageFix" result="effect1_dropShadow_21_1388"/>
<feBlend mode="normal" in="SourceGraphic" in2="effect1_dropShadow_21_1388" result="shape"/>
</filter>
<filter id="filter1_d_21_1388" x="127.333" y="623.759" width="60.3331" height="56.4819" filterUnits="userSpaceOnUse" color-interpolation-filters="sRGB">
<feFlood flood-opacity="0" result="BackgroundImageFix"/>
<feColorMatrix in="SourceAlpha" type="matrix" values="0 0 0 0 0 0 0 0 0 0 0 0 0 0 0 0 0 0 127 0" result="hardAlpha"/>
<feOffset dy="4"/>
<feGaussianBlur stdDeviation="2"/>
<feComposite in2="hardAlpha" operator="out"/>
<feColorMatrix type="matrix" values="0 0 0 0 0 0 0 0 0 0 0 0 0 0 0 0 0 0 0.25 0"/>
<feBlend mode="normal" in2="BackgroundImageFix" result="effect1_dropShadow_21_1388"/>
<feBlend mode="normal" in="SourceGraphic" in2="effect1_dropShadow_21_1388" result="shape"/>
</filter>
<filter id="filter2_f_21_1388" x="521" y="345" width="106" height="105" filterUnits="userSpaceOnUse" color-interpolation-filters="sRGB">
<feFlood flood-opacity="0" result="BackgroundImageFix"/>
<feBlend mode="normal" in="SourceGraphic" in2="BackgroundImageFix" result="shape"/>
<feGaussianBlur stdDeviation="12.5" result="effect1_foregroundBlur_21_1388"/>
</filter>
<clipPath id="clip0_21_1388">
<rect width="45" height="40" fill="white" transform="translate(1198.44 433.326) rotate(-8)"/>
</clipPath>
<clipPath id="clip1_21_1388">
<rect width="45" height="32.6531" fill="white" transform="translate(628)"/>
</clipPath>
<clipPath id="clip2_21_1388">
<rect width="45" height="40" fill="white" transform="translate(131.333 633.115) rotate(-12)"/>
</clipPath>
<clipPath id="clip3_21_1388">
<rect width="42" height="39" fill="white" transform="translate(1191.38 192.904) rotate(-5)"/>
</clipPath>
<clipPath id="clip4_21_1388">
<rect width="42" height="39" fill="white" transform="translate(355.705 237.649) rotate(10)"/>
</clipPath>
<clipPath id="clip5_21_1388">
<rect width="56" height="55" fill="white" transform="translate(546 370)"/>
</clipPath>
</defs>
</svg>
